<?xml version="1.0" standalone="no"?>
<!DOCTYPE svg PUBLIC "-//W3C//DTD SVG 1.1//EN" "http://www.w3.org/Graphics/SVG/1.1/DTD/svg11.dtd" >
<svg xmlns="http://www.w3.org/2000/svg">
<metadata>Generated by IcoMoon</metadata>
<defs>
<font id="icomoon" horiz-adv-x="1024">
<font-face units-per-em="1024" ascent="960" descent="-64" />
<missing-glyph horiz-adv-x="1024" />
<glyph unicode="&#x20;" horiz-adv-x="512" d="" />
<glyph unicode="&#xe900;" glyph-name="alert" d="M640 0h-256v192h256v-192zM608 320h-192l-32 576h256l-32-576z" />
<glyph unicode="&#xe901;" glyph-name="alert-circled" d="M953.4 115.6l-413.2 699c-5.8 10-16.6 17.4-28.2 17.4-11.8 0-22.6-7.4-28.2-17.4l-413.2-699c-5.6-10-9.6-26-3.8-35.8s16.4-15.8 28-15.8h834.2c11.6 0 22.2 6 28 15.8 6 9.8 2 26-3.6 35.8zM576 160h-128v96h128v-96zM576 320h-128v288h128v-288z" />
<glyph unicode="&#xe902;" glyph-name="android-add" d="M832 405.334h-277.334v-277.334h-85.332v277.334h-277.334v85.332h277.334v277.334h85.332v-277.334h277.334v-85.332z" />
<glyph unicode="&#xe903;" glyph-name="android-add-circle" d="M512 864c-229.75 0-416-186.25-416-416s186.25-416 416-416 416 186.25 416 416-186.25 416-416 416zM726 406h-172v-172h-84v172h-172v84h172v172h84v-172h172v-84z" />
<glyph unicode="&#xe904;" glyph-name="android-alarm-clock" d="M940 710.326l-196.886 163.56-55.628-65.862 196.884-163.538 55.63 65.84zM334.384 810.162l-55.652 65.838-194.732-165.674 55.628-65.838 194.756 165.674zM533.402 614.744h-64.202v-254.892l203.298-121.078 32.102 53.106-171.2 99.834v223.030zM512 784.67c-214 0-385.202-172.042-385.202-382.332 0-210.298 171.202-382.338 385.202-382.338 211.872 0 385.202 172.040 385.202 382.338 0 210.288-173.33 382.332-385.202 382.332zM512 104.96c-164.786 0-299.6 133.812-299.6 297.376 0 163.554 134.814 297.368 299.6 297.368 164.788 0 299.6-133.812 299.6-297.368 0-165.678-134.812-297.376-299.6-297.376z" />
<glyph unicode="&#xe905;" glyph-name="android-alert" d="M512 864c-228.8 0-416-187.202-416-416s187.2-416 416-416c228.8 0 416 187.202 416 416s-187.2 416-416 416zM560 240h-96v80h96v-80zM560 416h-96v256h96v-256z" />
<glyph unicode="&#xe906;" glyph-name="android-apps" d="M192 608h160v160h-160v-160zM432 128h160v160h-160v-160zM192 128h160v160h-160v-160zM192 368h160v160h-160v-160zM432 368h160v160h-160v-160zM672 768v-160h160v160h-160zM432 608h160v160h-160v-160zM672 368h160v160h-160v-160zM672 128h160v160h-160v-160z" />
<glyph unicode="&#xe907;" glyph-name="android-archive" d="M907.188 759.998l-64.706 78.598c-11.544 16.15-32.316 25.404-53.154 25.404h-554.658c-20.832 0-41.602-9.254-53.152-25.404l-64.702-78.598c-13.88-13.844-20.816-34.668-20.816-57.77v-577.78c0-50.848 41.6-92.448 92.45-92.448h647.106c50.848 0 92.444 41.6 92.444 92.45v577.78c0 23.1-6.926 43.924-20.812 57.768zM512 193.782l-254.22 254.218h161.78v92.448h184.886v-92.448h161.78l-254.226-254.218zM193.068 771.558l36.972 46.222h554.662l43.93-46.222h-635.564z" />
<glyph unicode="&#xe908;" glyph-name="android-arrow-back" d="M854 490.75h-519.408l239.404 239.404-61.996 59.846-342-342 342-342 59.844 59.848-237.252 239.402h519.408v85.5z" />
<glyph unicode="&#xe909;" glyph-name="android-arrow-down" d="M554.75 790v-519.408l239.404 239.404 59.846-61.996-342-342-342 342 59.848 59.844 239.402-237.252v519.408h85.5z" />
<glyph unicode="&#xe90a;" glyph-name="android-arrow-dropdown" d="M256 576l256-256 256 256z" />
<glyph unicode="&#xe90b;" glyph-name="android-arrow-dropdown-circle" d="M512 864c-229.75 0-416-186.25-416-416s186.25-416 416-416 416 186.25 416 416-186.25 416-416 416zM512 320l-192 192h384l-192-192z" />
<glyph unicode="&#xe90c;" glyph-name="android-arrow-dropleft" d="M640 704l-256-256 256-256z" />
<glyph unicode="&#xe90d;" glyph-name="android-arrow-dropleft-circle" d="M928 448c0 229.75-186.25 416-416 416s-416-186.25-416-416 186.25-416 416-416 416 186.25 416 416zM384 448l192 192v-384l-192 192z" />
<glyph unicode="&#xe90e;" glyph-name="android-arrow-dropright" d="M384 704l256-256-256-256z" />
<glyph unicode="&#xe90f;" glyph-name="android-arrow-dropright-circle" d="M512 32c229.75 0 416 186.25 416 416s-186.25 416-416 416-416-186.25-416-416 186.25-416 416-416zM448 256v384l192-192-192-192z" />
<glyph unicode="&#xe910;" glyph-name="android-arrow-dropup" d="M256 320l256 256 256-256z" />
<glyph unicode="&#xe911;" glyph-name="android-arrow-dropup-circle" d="M928 448c0 229.75-186.25 416-416 416s-416-186.25-416-416 186.25-416 416-416 416 186.25 416 416zM704 384h-384l192 192 192-192z" />
<glyph unicode="&#xe912;" glyph-name="android-arrow-forward" d="M170 405.25h519.408l-239.404-239.404 61.996-59.846 342 342-342 342-59.844-59.848 237.252-239.402h-519.408v-85.5z" />
<glyph unicode="&#xe913;" glyph-name="android-arrow-up" d="M554.75 106v519.408l239.404-239.404 59.846 61.996-342 342-342-342 59.848-59.844 239.402 237.252v-519.408h85.5z" />
<glyph unicode="&#xe914;" glyph-name="android-attach" d="M682.668 704v-469.332c0-93.876-76.792-170.668-170.668-170.668-93.874 0-170.666 76.792-170.666 170.668v490.664c0 59.73 46.936 106.668 106.666 106.668 59.728 0 106.666-46.938 106.666-106.668v-490.666c0-23.458-19.21-42.666-42.668-42.666s-42.666 19.208-42.666 42.666v405.334h-64v-405.334c0.002-59.728 46.938-106.666 106.668-106.666s106.668 46.938 106.668 106.666v490.666c0 93.866-76.792 170.668-170.668 170.668s-170.668-76.802-170.668-170.668v-490.664c0.002-130.126 104.544-234.668 234.668-234.668s234.668 104.542 234.668 234.668v469.332h-64z" />
<glyph unicode="&#xe915;" glyph-name="android-bar" d="M469.334 405.334v-261.334h-213.334v-80h512v80h-213.334v261.334l341.334 341.332v85.334h-768v-85.334l341.334-341.332zM320 661.334l-85.334 85.332h554.668l-85.334-85.332h-384z" />
<glyph unicode="&#xe916;" glyph-name="android-bicycle" d="M661.332 697.596c37.336 0 67.196 29.87 67.196 67.202s-29.86 67.202-67.196 67.202c-37.332 0-67.192-29.87-67.192-67.202s29.86-67.202 67.192-67.202zM773.332 437.332c-102.664 0-186.664-84-186.664-186.666s84-186.666 186.664-186.666c102.668 0 186.668 84 186.668 186.666s-84 186.666-186.668 186.666zM773.332 120c-72.804 0-130.664 57.86-130.664 130.666s57.86 130.666 130.664 130.666c72.808 0 130.668-57.86 130.668-130.666s-57.86-130.666-130.668-130.666zM611.194 512h156.806v64h-117.69l-69.24 120.268c-11.21 18.666-31.738 31.728-54.14 31.728-16.798 0-33.596-7.464-44.798-18.666l-143.464-138.13c-11.202-11.202-18.666-28-18.666-44.798 0-24.262 18.404-42.93 37.070-54.13l122.928-76.54v-171.732h64v224l-78.666 64 85.858 89.066 60.002-89.066zM250.666 437.332c-102.666 0-186.666-84-186.666-186.666s84-186.666 186.666-186.666c102.666 0 186.666 84 186.666 186.666s-83.998 186.666-186.666 186.666zM250.666 120c-72.798 0-130.666 57.86-130.666 130.666s57.868 130.666 130.666 130.666c72.798 0 130.666-57.86 130.666-130.666s-57.868-130.666-130.666-130.666z" />
<glyph unicode="&#xe917;" glyph-name="android-boat" d="M168.51 134h2.126c68.246 0 127.954 38.042 170.61 84.988 42.65-46.946 102.36-85.524 170.608-85.524s127.958 38.668 170.61 85.612c42.654-46.944 102.36-85.076 170.606-85.076h2.124l102.506 277.56c4.252 10.658 2.126 23.282-2.14 33.952-4.272 10.666-14.474 16.974-25.134 21.246l-76.426 24.976v196.3c0 46.946-39.312 85.966-86.232 85.966h-127.958l-31.986 106h-191.938l-31.99-106h-127.958c-46.916 0-85.938-39.020-85.938-85.964v-196.3l-76.148-25.066c-10.66-4.272-21.164-10.668-25.436-21.334-4.27-10.67-6.316-20.98-2.062-33.774l102.156-277.562zM256 688h512v-168.522l-256 83.21-256-83.21v168.522zM682.462 143.986c-104.506-72.534-236.712-72.516-341.216 0.018 0 0-115.276-128.004-213.264-128.004h42.654c59.708 0 117.292 23.452 170.61 51.188 106.63-55.468 234.586-55.456 341.216 0.014 53.318-27.738 110.9-51.202 170.608-51.202h42.656c-95.302 0-213.264 127.986-213.264 127.986z" />
<glyph unicode="&#xe918;" glyph-name="android-bookmark" d="M720 832h-416c-44.004 0-80-35.996-80-80v-688l288 128 288-128v688c0 44.004-35.996 80-80 80z" />
<glyph unicode="&#xe919;" glyph-name="android-bulb" d="M512 619.728c50.998 0 99.134-20.050 135.542-56.458 36.408-36.406 56.458-84.544 56.458-135.542 0-35.242-8.844-68.062-26.288-97.546-16.678-28.196-40.874-52.072-69.97-69.052l-31.742-18.524v-178.606h-128v178.606l-31.742 18.524c-59.374 34.648-96.258 98.486-96.258 166.598 0 50.998 20.050 99.134 56.458 135.542s84.544 56.458 135.542 56.458zM554.666 896c-12.792 0-85.332 0-85.332 0v-128h85.332v128zM812.792 788.272l-76.792-76.814 59.728-59.73 76.812 76.792-59.748 59.752zM211.208 788.272l-59.75-59.75 76.812-76.792 59.73 59.728-76.792 76.814zM512 683.728c-140.792 0-256-115.208-256-256 0-93.876 51.208-177.062 128-221.876v-205.852h256v205.854c76.792 44.812 128 125.876 128 221.876 0 140.792-115.208 255.998-256 255.998v0zM960 470.396h-128v-85.334h128v85.334zM192 470.396h-128v-85.334h128v85.334z" />
<glyph unicode="&#xe91a;" glyph-name="android-bus" d="M160 256c0-38.396 27.728-49.062 53.334-72.542v-76.792c0-23.458 19.198-42.668 42.666-42.668h42.666c23.468 0 42.668 19.208 42.668 42.668v42.666h341.332v-42.666c0-23.458 19.208-42.668 42.668-42.668h42.666c23.458 0 42.666 19.208 42.666 42.668v76.792c25.606 23.48 53.334 36.27 53.334 72.542v407.332c0 149.334-164.272 168.668-352 168.668s-352-19.334-352-168.668v-407.332zM320 224.022c-36.272 0-64 27.728-64 64 0 36.27 27.728 64 64 64s64-27.73 64-64c0-36.272-27.728-64-64-64zM704 224.022c-36.272 0-64 27.728-64 64 0 36.27 27.728 64 64 64s64-27.73 64-64c0-36.272-27.728-64-64-64zM768 469.334h-512v213.332h512v-213.332z" />
<glyph unicode="&#xe91b;" glyph-name="android-calendar" d="M736.010 416h-192v-192h192v192zM672.010 832v-64h-320v64h-96v-64h-48.020c-44.004 0-80-35.996-80-80v-544c0-44.004 35.996-80 80-80h608.020c44.004 0 80 35.996 80 80v544c0 44.004-35.996 80-80 80h-48v64h-96zM816.010 144h-608.020v424h608.020v-424z" />
<glyph unicode="&#xe91c;" glyph-name="android-call" d="M853.332 298.666c-53.332 0-104.542 8.542-151.458 23.458-14.938 4.272-32 2.146-42.664-10.666l-93.878-93.856c-121.604 61.856-219.728 160-281.604 281.606l93.878 93.854c10.664 10.666 14.924 27.728 10.664 42.666-17.074 49.062-25.604 100.272-25.604 153.606 0 23.458-19.198 42.666-42.666 42.666h-149.334c-23.468 0-42.666-19.208-42.666-42.666 0-401.062 324.272-725.334 725.332-725.334 23.46 0 42.668 19.208 42.668 42.666v149.334c0 23.458-19.208 42.666-42.668 42.666z" />
<glyph unicode="&#xe91d;" glyph-name="android-camera" d="M638 400c0-69.588-56.412-126-126-126s-126 56.412-126 126c0 69.588 56.412 126 126 126s126-56.412 126-126zM880 768h-176l-64 64h-256l-64-64h-176c-44.184 0-80-35.816-80-80v-544c0-44.184 35.816-80 80-80h736c44.184 0 80 35.816 80 80v544c0 44.184-35.816 80-80 80zM512 176c-123.71 0-224 100.29-224 224s100.29 224 224 224 224-100.29 224-224-100.29-224-224-224z" />
<glyph unicode="&#xe91e;" glyph-name="android-cancel" d="M512 864c-230.882 0-416-185.118-416-416 0-230.872 185.118-416 416-416 230.87 0 416 185.128 416 416 0 230.882-185.128 416-416 416zM720.004 298.238l-58.24-58.234-149.764 149.762-149.762-149.762-58.242 58.234 149.766 149.762-149.766 149.762 58.242 58.232 149.762-149.756 149.762 149.756 58.24-58.232-149.764-149.762 149.766-149.762z" />
<glyph unicode="&#xe91f;" glyph-name="android-car" d="M806.416 725.334c-8.542 25.604-32 42.666-59.75 42.666h-469.332c-27.75 0-51.208-17.062-59.75-42.666l-89.584-234.668v-320c0-23.458 19.208-42.666 42.666-42.666h42.668c23.458 0 42.666 19.208 42.666 42.666v21.334h512v-21.334c0-23.458 19.208-42.666 42.666-42.666h42.668c23.458 0 42.666 19.208 42.666 42.666v320l-89.584 234.668zM277.334 320c-36.25 0-64 27.73-64 64s27.75 64 64 64 64-27.732 64-64-27.75-64-64-64zM746.666 320c-36.25 0-64 27.73-64 64s27.75 64 64 64 64-27.732 64-64-27.75-64-64-64zM213.334 533.334l64 170.666h469.332l64-170.666h-597.332z" />
<glyph unicode="&#xe920;" glyph-name="android-cart" d="M339.2 204.8c-45.764 0-83.2-37.436-83.2-83.202 0-45.764 37.436-83.2 83.2-83.2s83.202 37.436 83.202 83.2c-0.002 45.768-37.44 83.202-83.202 83.202zM96 857.6v-83.2h83.2l149.766-303.364-62.616-101.908c-6.236-10.4-10.4-24.964-10.4-39.53 0-55.7 38.050-83.2 89.65-83.2h486.4v80h-476.214c-6.236 0-10.4 4.164-10.4 10.4 0 2.072 4.414 10.4 4.414 10.4l41.564 65.6h309.908c31.202 0 58.256 16.634 72.8 43.672l149.764 257.6c2.474 4.922 4.164 12.492 4.164 20.798 0 22.892-18.728 39.53-41.6 39.53h-615.672l-39.528 83.202h-135.2zM748.798 204.8c-45.764 0-83.2-37.436-83.2-83.202 0-45.764 37.436-83.2 83.2-83.2s83.202 37.438 83.202 83.202c0 45.766-37.438 83.2-83.202 83.2z" />
<glyph unicode="&#xe921;" glyph-name="android-chat" d="M783.106 832h-667.892c-8.952 0-19.214-7.49-19.214-16.318v-428.434c0-8.826 10.262-17.248 19.214-17.248h114.786v-177.788l180.256 177.788h372.85c8.954 0 14.894 8.422 14.894 17.248v428.434c0 8.828-5.942 16.318-14.894 16.318zM912.792 706h-64.792v-333.14c0-31.974-13.83-52.86-50.304-52.86h-361.504l-77.81-78h259.376l180.242-178v178h114.792c8.956 0 15.208 8.524 15.208 17.364v428.43c0 8.828-6.252 18.206-15.208 18.206z" />
<glyph unicode="&#xe922;" glyph-name="android-checkbox" d="M810.666 832h-597.332c-46.938 0-85.334-38.396-85.334-85.334v-597.332c0-46.938 38.396-85.334 85.334-85.334h597.332c46.938 0 85.334 38.396 85.334 85.334v597.332c0 46.938-38.396 85.334-85.334 85.334zM426.666 234.666l-213.332 213.334 59.728 59.728 153.604-153.604 324.272 324.272 59.728-59.73-384-384z" />
<glyph unicode="&#xe923;" glyph-name="android-checkbox-blank" d="M810.666 832h-597.332c-46.938 0-85.334-38.396-85.334-85.334v-597.332c0-46.938 38.396-85.334 85.334-85.334h597.332c46.938 0 85.334 38.396 85.334 85.334v597.332c0 46.938-38.396 85.334-85.334 85.334z" />
<glyph unicode="&#xe924;" glyph-name="android-checkbox-outline" d="M337.062 529.062l-59.728-59.728 192-192 426.666 426.666-59.728 59.728-366.938-364.79-132.272 130.124zM810.666 149.334h-597.332v597.332h426.666v85.334h-426.666c-46.938 0-85.334-38.396-85.334-85.334v-597.332c0-46.938 38.396-85.334 85.334-85.334h597.332c46.938 0 85.334 38.396 85.334 85.334v341.332h-85.334v-341.332z" />
<glyph unicode="&#xe925;" glyph-name="android-checkbox-outline-blank" d="M810.666 746.666v-597.332h-597.332v597.332h597.332zM810.666 832h-597.332c-46.938 0-85.334-38.396-85.334-85.334v-597.332c0-46.938 38.396-85.334 85.334-85.334h597.332c46.938 0 85.334 38.396 85.334 85.334v597.332c0 46.938-38.396 85.334-85.334 85.334v0z" />
<glyph unicode="&#xe926;" glyph-name="android-checkmark-circle" d="M341.436 527.036l-58.236-58.236 187.2-187.2 416 416-58.236 58.236-357.764-355.672-128.964 126.872zM844.8 448c0-183.036-149.766-332.8-332.8-332.8s-332.8 149.764-332.8 332.8 149.764 332.8 332.8 332.8c31.2 0 62.4-4.164 91.528-12.482l64.472 64.482c-47.836 20.8-99.836 31.2-156 31.2-228.8 0-416-187.2-416-416s187.2-416 416-416 416 187.2 416 416h-83.2z" />
<glyph unicode="&#xe927;" glyph-name="android-clipboard" d="M810.666 800h-174.7c-14.208 55.208-64.324 96-123.966 96s-109.758-40.792-123.966-96h-174.7c-46.938 0-85.334-38.396-85.334-85.334v-629.33c0-46.938 38.396-85.336 85.334-85.336h597.332c46.938 0 85.334 38.398 85.334 85.336v629.33c0 46.938-38.396 85.334-85.334 85.334zM512 800c23.458 0 42.666-19.198 42.666-42.666s-19.208-42.668-42.666-42.668-42.666 19.2-42.666 42.668 19.208 42.666 42.666 42.666zM816 80h-608v640h80v-144h448v144h80v-640z" />
<glyph unicode="&#xe928;" glyph-name="android-close" d="M810 686.404l-59.596 59.596-238.404-238.404-238.404 238.404-59.596-59.596 238.404-238.404-238.404-238.404 59.596-59.596 238.404 238.404 238.404-238.404 59.596 59.596-238.404 238.404z" />
<glyph unicode="&#xe929;" glyph-name="android-cloud" d="M806.004 525.998c-28.008 137.998-148.008 242.002-294.004 242.002-115.996 0-215.996-65.996-265.996-162.002-120-12.002-214.004-113.994-214.004-237.998 0-131.992 107.998-240 240-240h520c110 0 200 90 200 200 0 105.996-81.992 192.002-185.996 197.998z" />
<glyph unicode="&#xe92a;" glyph-name="android-cloud-circle" d="M512 864c-228.8 0-416-187.2-416-416s187.2-416 416-416c228.8 0 416 187.2 416 416s-187.2 416-416 416zM699.2 281.6c0 0-351.518 0-353.598 0-68.636 0-124.8 56.164-124.8 124.798 0 68.638 56.164 124.8 124.8 124.8 2.082 0 4.164 0 6.234 0 18.728 72.8 83.202 124.798 160.166 124.798 91.528 0 166.398-74.87 166.398-166.396h20.8c58.236 0 104-45.764 104-104.002 0-58.234-45.764-103.998-104-103.998z" />
<glyph unicode="&#xe92b;" glyph-name="android-cloud-done" d="M806.004 525.998c-28.008 137.998-148.008 242.002-294.004 242.002-115.996 0-215.996-65.996-265.996-162.002-120-12.002-214.004-113.994-214.004-237.998 0-131.992 107.998-240 240-240h520c110 0 200 90 200 200 0 105.996-81.992 192.002-185.996 197.998zM426.666 234.666l-149.332 149.334 59.728 59.728 89.604-89.604 221.876 221.876 59.73-59.728-281.606-281.606z" />
<glyph unicode="&#xe92c;" glyph-name="android-cloud-outline" d="M806.002 525.998c-28.008 137.998-148.006 242.002-294.002 242.002-115.996 0-215.998-65.996-265.994-162-120.002-12.004-214.006-113.996-214.006-238 0-131.992 108.008-240 240-240h520c110 0 200 90 200 200.002 0 105.994-81.994 191.998-185.998 197.996zM792 208h-520c-88.008 0-160 71.992-160 160 0 88 71.992 160 160 160h28.008c25.996 92 110 160 211.992 160 121.992 0 220-98 220-220v-20h60c65.996 0 120-54.006 120-120 0-65.996-54.004-120-120-120z" />
<glyph unicode="&#xe92d;" glyph-name="android-color-palette" d="M512 832c-211.198 0-384-172.802-384-384 0-211.208 172.802-384 384-384 36.272 0 64 27.728 64 64 0 17.062-6.396 32-17.062 42.666-10.666 10.668-17.062 25.606-17.062 42.668 0 36.27 27.728 64 64 64h76.792c117.334 0 213.334 96 213.334 213.332-0.002 187.73-172.794 341.334-384.002 341.334zM277.334 448c-36.272 0-64 27.728-64 64s27.728 64 64 64c36.27 0 64-27.728 64-64s-27.73-64-64-64zM405.334 618.666c-36.272 0-64 27.73-64 64 0 36.272 27.728 64 64 64 36.27 0 64-27.728 64-64 0-36.27-27.73-64-64-64zM618.666 618.666c-36.27 0-64 27.73-64 64 0 36.272 27.73 64 64 64 36.272 0 64-27.728 64-64 0-36.27-27.728-64-64-64zM746.666 448c-36.27 0-64 27.728-64 64s27.73 64 64 64c36.272 0 64-27.728 64-64s-27.728-64-64-64z" />
<glyph unicode="&#xe92e;" glyph-name="android-compass" d="M512 497.284c-26.884 0-49.286-22.4-49.286-49.284s22.4-49.286 49.286-49.286 49.286 22.4 49.286 49.286-22.402 49.284-49.286 49.284zM512 896c-246.4 0-448-201.6-448-448s201.6-448 448-448 448 201.6 448 448-201.6 448-448 448zM610.568 349.432l-367.368-170.232 170.232 367.358 367.368 170.242-170.232-367.368z" />
<glyph unicode="&#xe92f;" glyph-name="android-contact" d="M662.16 283.59c-44.312-25.188-95.554-39.566-150.168-39.566-54.604 0-105.838 14.364-150.146 39.542-117.54-35.87-207.322-115.566-233.846-219.566h768c-26.51 104-116.292 183.738-233.84 219.59zM511.992 832c-145.742 0-263.89-118.254-263.89-264.026 0-145.774 118.148-263.944 263.89-263.944s263.89 118.17 263.89 263.944c0 145.772-118.148 264.026-263.89 264.026zM511.992 370.028c-83.916 0-155.626 51.972-184.418 125.972h368.836c-28.792-74-100.504-125.972-184.418-125.972z" />
<glyph unicode="&#xe930;" glyph-name="android-contacts" d="M478.416 272.126c-35.56-20.206-76.684-31.752-120.51-31.752-43.818 0-84.934 11.542-120.492 31.74-94.326-28.776-152.128-124.114-173.414-208.114h587.824c-21.278 84-79.074 179.366-173.408 208.126zM357.906 719.93c-116.958 0-211.772-94.788-211.772-211.716s94.814-211.714 211.772-211.714c116.958 0 211.772 94.788 211.772 211.714 0 116.928-94.816 211.716-211.772 211.716zM357.906 346.954c-67.342 0-124.89 45.026-147.994 101.046h295.988c-23.108-56.022-80.652-101.046-147.994-101.046zM645.204 192h314.796c-21.276 84-79.074 163.382-173.406 192.144-35.562-20.208-76.686-31.746-120.512-31.746-29.646 0-58.048 5.308-84.336 14.98-14.89-24.94-33.854-51.184-55.948-69.812 52.692-20.274 92.494-65.566 119.406-105.566zM613.090 560h200.986c-23.108-56-80.654-100.586-147.994-100.586-17.75 0-34.808 3.384-50.75 9.020-2.676-17.418-7.086-34.14-13.040-50.236 20.132-6.348 41.558-9.724 63.79-9.724 116.958 0 211.772 94.82 211.772 211.744 0 116.93-94.814 211.732-211.772 211.732-74.98 0-140.854-39.406-178.486-98.18 63.618-36.536 110.326-99.77 125.494-173.77z" />
<glyph unicode="&#xe931;" glyph-name="android-contract" d="M128 217.6h153.59v-153.6h102.41v256h-256v-102.4zM281.59 678.4h-153.59v-102.4h256v256h-102.41v-153.6zM640 64h102.4v153.6h153.6v102.4h-256v-256zM742.4 678.4v153.6h-102.4v-256h256v102.4h-153.6z" />
<glyph unicode="&#xe932;" glyph-name="android-create" d="M128 224v-160h160l471.454 471.458-159.998 159.996-471.456-471.454zM883.204 659.204c17.062 17.062 17.062 42.668 0 59.73l-100.27 100.27c-17.062 17.062-42.668 17.062-59.73 0l-78.936-78.938 159.998-159.996 78.938 78.934z" />
<glyph unicode="&#xe933;" glyph-name="android-delete" d="M256 149.142c0-46.834 38.396-85.142 85.334-85.142h341.334c46.936 0 85.332 38.308 85.332 85.142v490.858h-512v-490.858zM832 768h-160l-53.57 64h-212.858l-53.572-64h-160v-64h640v64z" />
<glyph unicode="&#xe934;" glyph-name="android-desktop" d="M874.666 896h-725.332c-46.938 0-85.334-38.394-85.334-85.332v-565.334c0-46.938 38.396-85.334 85.334-85.334h277.332l-85.332-96v-64h341.332v64l-85.332 96h277.332c46.938 0 85.334 38.396 85.334 85.334v565.334c0 46.938-38.396 85.332-85.334 85.332zM874.666 320h-725.332v490.668h725.332v-490.668z" />
<glyph unicode="&#xe935;" glyph-name="android-document" d="M576 864h-304c-44.184 0-80-35.816-80-80v-672c0-44.184 35.816-80 80-80h480c44.184 0 80 35.816 80 80v496l-256 256zM544 576v224l224-224h-224z" />
<glyph unicode="&#xe936;" glyph-name="android-done" d="M372.602 280.214l-180.602 180.864-64-61.014 244.602-244.064 523.398 522.988-64 61.012z" />
<glyph unicode="&#xe937;" glyph-name="android-done-all" d="M775.162 680.576l-61.652 61.424-279.684-278.638 61.662-61.438 279.674 278.652zM962.344 742l-466.856-462.938-182.78 182.102-61.654-61.43 244.434-245.734 528.512 526.576-61.656 61.424zM0 399.734l246.642-245.734 61.658 61.426-244.432 245.738-63.868-61.43z" />
<glyph unicode="&#xe938;" glyph-name="android-download" d="M806.004 525.998c-28.008 137.998-148.008 242.002-294.004 242.002-115.996 0-215.996-65.996-265.996-162.002-120-12.002-214.004-113.994-214.004-237.998 0-131.992 107.998-240 240-240h520c110 0 200 90 200 200 0 105.996-81.992 192.002-185.996 197.998zM448 424v152h128v-152h136l-200-200-200 200h136z" />
<glyph unicode="&#xe939;" glyph-name="android-drafts" d="M960 556.666c0 29.866-14.938 57.606-40.542 72.532l-407.458 202.802-407.458-202.802c-23.48-14.926-40.542-42.666-40.542-72.532v-407.332c0-46.938 38.394-85.334 85.332-85.334h725.336c46.938 0 85.332 38.396 85.332 85.334v407.332zM512 352l-342.738 224 342.738 170.666 342.738-170.666-342.738-224z" />
<glyph unicode="&#xe93a;" glyph-name="android-exit" d="M430.938 294.396l59.726-59.728 213.336 213.332-213.336 213.334-59.726-59.73 110.938-110.938h-413.876v-85.332h411.728l-108.79-110.938zM810.668 832h-597.336c-46.936 0-85.332-38.396-85.332-85.332v-170.668h85.332v170.666h597.336v-597.336h-597.336v170.67h-85.332v-170.668c0-46.936 38.396-85.332 85.332-85.332h597.336c46.936 0 85.332 38.396 85.332 85.332v597.336c0 46.936-38.396 85.332-85.332 85.332z" />
<glyph unicode="&#xe93b;" glyph-name="android-expand" d="M793.59 166.4h-153.59v-102.4h256v256h-102.41zM793.6 729.59v-153.59h102.4v256h-256v-102.41zM230.41 729.6h153.59v102.4h-256v-256h102.41zM230.4 166.41v153.59h-102.4v-256h256v102.41z" />
<glyph unicode="&#xe93c;" glyph-name="android-favorite" d="M512 64l-60.328 54.422c-214.236 196.694-355.672 324.358-355.672 483.388 0 129.748 99.836 230.19 228.8 230.19 72.798 0 141.434-33.484 187.2-87.894 45.764 54.41 114.398 87.894 187.2 87.894 128.964 0 228.8-100.442 228.8-230.19 0-159.032-141.438-286.696-355.672-483.388l-60.328-54.422z" />
<glyph unicode="&#xe93d;" glyph-name="android-favorite-outline" d="M699.2 832c-72.8 0-141.436-33.484-187.2-87.894-45.766 54.41-114.4 87.894-187.2 87.894-128.964 0-228.8-100.442-228.8-230.19 0-159.032 141.436-286.696 355.672-483.388l60.328-54.422 60.328 54.422c214.234 196.694 355.672 324.358 355.672 483.388 0 129.748-99.836 230.19-228.8 230.19zM537.672 173.486l-8.438-7.746-17.234-15.546-17.232 15.544-8.428 7.738c-100.836 92.564-187.922 172.508-245.492 243.988-55.914 69.426-80.848 126.28-80.848 184.346 0 45.73 16.844 87.862 47.43 118.632 30.484 30.668 72.166 47.558 117.37 47.558 52.268 0 103.94-24.334 138.22-65.090l48.98-58.232 48.978 58.232c34.282 40.756 85.952 65.090 138.222 65.090 45.206 0 86.886-16.89 117.372-47.556 30.584-30.772 47.428-72.902 47.428-118.634 0-58.066-24.934-114.918-80.844-184.342-57.568-71.48-144.65-151.418-245.484-243.982z" />
<glyph unicode="&#xe93e;" glyph-name="android-film" d="M752 832v-85.334h-80v85.334h-320v-85.334h-80v85.334h-80v-768h80v85.332h80v-85.332h320v85.332h80v-85.332h80v768h-80zM352 234.666h-80v85.334h80v-85.334zM352 405.332h-80v85.334h80v-85.334zM352 576h-80v85.332h80v-85.332zM752 234.666h-80v85.334h80v-85.334zM752 405.332h-80v85.334h80v-85.334zM752 576h-80v85.332h80v-85.332z" />
<glyph unicode="&#xe93f;" glyph-name="android-folder" d="M426.676 768h-277.344c-46.938 0-85.332-38.396-85.332-85.334v-469.332c0-46.938 38.394-85.334 85.332-85.334h725.336c46.938 0 85.332 38.396 85.332 85.334v373.332c0 46.938-38.394 85.334-85.332 85.334h-362.656l-85.336 96z" />
<glyph unicode="&#xe940;" glyph-name="android-folder-open" d="M874.668 672h-362.656l-85.336 96h-277.344c-46.938 0-85.332-38.396-85.332-85.334v-469.332c0-46.938 38.394-85.334 85.332-85.334h725.336c46.938 0 85.332 38.396 85.332 85.334v373.332c0 46.938-38.394 85.334-85.332 85.334zM896 213.334c0-11.564-9.77-21.334-21.332-21.334h-725.336c-11.564 0-21.332 9.77-21.332 21.334v394.666h746.668c11.562 0 21.332-9.77 21.332-21.334v-373.332z" />
<glyph unicode="&#xe941;" glyph-name="android-funnel" d="M416 160h192v95.988h-192v-95.988zM64 736v-95.988h896v95.988h-896zM224 398.434h576v99.11h-576v-99.11z" />
<glyph unicode="&#xe942;" glyph-name="android-globe" d="M512 864c-229.752 0-416-186.25-416-416s186.248-416 416-416c229.75 0 416 186.25 416 416s-186.25 416-416 416zM468.902 94.002c-78.928 9.452-151.956 44.784-209.038 101.864-67.348 67.348-104.436 156.89-104.436 252.134 0 85.74 30.072 166.848 85.202 231.318 1.42-17.034 4.926-35.296 4.028-48.35-3.28-47.59-7.976-77.374 19.88-117.524 10.852-15.638 13.518-38.056 18.8-56.156 5.166-17.708 25.804-26.996 40.038-37.906 28.718-22.018 56.192-47.61 86.644-66.988 20.098-12.79 32.652-19.152 26.766-43.678-4.734-19.724-6.056-31.874-16.26-49.446-3.114-5.362 11.754-39.836 16.702-44.784 14.996-14.994 29.876-28.75 46.222-42.25 25.342-20.938-2.462-48.144-14.548-78.234zM764.134 195.866c-51.266-51.266-115.398-84.972-185.112-98.162 9.88 24.432 27.472 46.14 43.79 58.724 14.194 10.952 31.972 32.018 39.386 48.704 7.408 16.664 17.222 31.11 27.154 46.434 14.13 21.798-34.838 54.672-50.706 61.562-35.708 15.502-62.588 36.42-94.322 58.75-22.61 15.908-68.514-8.308-94.040 2.834-34.962 15.266-63.766 41.792-94.156 64.678-31.36 23.618-29.844 51.152-29.844 85.994 24.564-0.906 59.508 6.798 75.816-12.956 5.146-6.234 22.84-34.084 34.684-24.188 9.676 8.086-7.17 40.498-10.424 48.118-10.010 23.43 22.808 32.568 39.606 48.456 21.92 20.728 68.94 53.236 65.224 68.094s-47.048 56.954-72.498 50.386c-3.814-0.984-37.394-36.194-43.882-41.718 0.172 11.492 0.344 22.982 0.52 34.474 0.11 7.256-13.536 14.704-12.902 19.384 1.6 11.828 34.524 33.294 42.714 42.714-5.738 3.586-25.318 20.404-31.244 17.936-14.348-5.98-30.552-10.1-44.9-16.078 0 4.976-0.604 9.65-1.324 14.266 28.752 12.73 59.174 21.582 90.62 26.304l28.168-11.32 19.888-23.602 19.848-20.466 17.35-5.59 27.558 25.99-7.106 18.554v16.678c54.5-7.916 105.968-28.248 151.044-59.6-8.064-0.722-16.926-1.908-26.924-3.18-4.13 2.44-9.428 3.548-13.93 5.246 13.062-28.084 26.686-55.78 40.528-83.492 14.786-29.602 47.586-61.354 53.346-92.602 6.788-36.832 2.078-70.288 5.792-113.622 3.576-41.73 47.048-89.144 47.048-89.144s20.074-6.838 36.768-4.456c-15.562-61.566-47.466-118.028-93.538-164.104z" />
<glyph unicode="&#xe943;" glyph-name="android-hand" d="M901.358 413c-29.17 29.154-72.108 31.78-101.278 2.624l-83.374-83.328c-21.704-21.672-47.86-21.718-63.128-3.704-10.114 11.936-6.122 48.748-3.288 72.098l41.814 343.698c3.734 30.706-18.14 60.37-48.86 64.102-30.716 3.734-58.644-19.878-62.382-50.578l-46.122-269.954c-2.41-6.716-7.58-7.876-8.162 1.164l-15.698 350.878c0 30.93-25.084 56-56.028 56-30.946 0-56.030-25.070-56.030-56l-1.104-353.504c0.292-4.080-3.208-5.248-3.84-0.588l-49.846 275.938c-5.5 30.438-34.646 52.406-65.096 46.906-30.454-5.496-50.678-36.374-45.182-66.806l44.386-322.91c0.046-5.744-1.882-9.026-4.616-1.662l-66.218 177.034c-10.36 29.144-42.392 46.13-71.552 35.778-29.158-10.354-44.402-44.122-34.046-73.262l116.084-379.25c0.606-2.092 1.248-4.17 1.906-6.236l0.242-0.78c0.022-0.062 0.050-0.116 0.070-0.176 32.148-98.948 125.13-170.482 234.844-170.482 70.232 0 143.182 24.756 198.714 67.344 0.002 0 0.006 0.004 0.006 0.004 59.98 36.102 252.142 242.694 252.142 242.694 29.174 29.154 24.816 73.798-4.358 102.958z" />
<glyph unicode="&#xe944;" glyph-name="android-hangout" d="M512 864c-194.642 0-352-154.228-352-344.974 0-190.76 157.358-344.974 352-344.974v-142.052c200.85 95.378 352 304.39 352 487.026 0 190.746-157.358 344.974-352 344.974zM492 498.734l-42.114-80.734h-62.126l41.424 80h-61.184v122h124v-121.266zM656 498.734l-40.464-80.734h-62.126l41.408 80h-62.818v122h124v-121.266z" />
<glyph unicode="&#xe945;" glyph-name="android-happy" d="M512 864c-230.874 0-416-187.2-416-416s185.126-416 416-416 416 187.2 416 416c0 228.8-187.198 416-416 416zM512 115.2c-183.036 0-332.808 149.766-332.808 332.8 0 183.036 149.774 332.8 332.808 332.8s332.808-149.764 332.808-332.8c0-183.036-149.772-332.8-332.808-332.8zM657.6 489.6c35.366 0 62.402 27.036 62.402 62.4s-27.038 62.4-62.402 62.4c-35.364 0-62.4-27.036-62.4-62.4s27.036-62.4 62.4-62.4zM366.4 489.6c35.364 0 62.4 27.036 62.4 62.4s-27.038 62.4-62.4 62.4c-35.366 0-62.402-27.036-62.402-62.4s27.038-62.4 62.402-62.4zM512 219.2c97.766 0 178.872 60.328 212.162 145.602h-424.324c33.29-85.274 114.396-145.602 212.162-145.602z" />
<glyph unicode="&#xe946;" glyph-name="android-home" d="M416 64v256h192v-256h195.2v384h124.8l-416 384-416-384h124.8v-384z" />
<glyph unicode="&#xe947;" glyph-name="android-image" d="M896 149.334v597.332c0 46.938-38.396 85.334-85.334 85.334h-597.332c-46.938 0-85.334-38.396-85.334-85.334v-597.332c0-46.938 38.396-85.334 85.334-85.334h597.332c46.938 0 85.334 38.396 85.334 85.334zM362.666 384l106.668-128 149.332 192 192-256h-597.332l149.332 192z" />
<glyph unicode="&#xe948;" glyph-name="android-laptop" d="M874.668 128c46.938 0 85.332 38.394 85.332 85.332v533.332c0 46.938-38.394 85.336-85.332 85.336h-725.336c-46.938 0-85.332-38.398-85.332-85.336v-533.332c0-46.938 38.394-85.332 85.332-85.332h-149.332c0-46.938 128-64 192-64h640c64 0 192 17.062 192 64h-149.332zM149.332 746.664h725.336v-543.996h-725.336v543.996zM512 90.668c-23.458 0-42.666 19.208-42.666 42.668 0 23.458 19.208 42.664 42.666 42.664s42.666-19.208 42.666-42.664c0-23.46-19.208-42.668-42.666-42.668z" />
<glyph unicode="&#xe949;" glyph-name="android-list" d="M816 832h-608c-44.182 0-80-35.816-80-80v-608c0-44.184 35.818-80 80-80h608c44.184 0 80 35.816 80 80v608c0 44.184-35.816 80-80 80zM608 224h-320v96h320v-96zM736 400h-448v96h448v-96zM736 576h-448v96h448v-96z" />
<glyph unicode="&#xe94a;" glyph-name="android-locate" d="M512 608c-88.008 0-160.002-72-160.002-160 0-88.008 71.994-160 160.002-160 88.010 0 159.998 71.992 159.998 160 0 88-71.988 160-159.998 160zM893.876 490.666c-19.21 177.062-162.148 320-339.21 339.198v66.136h-85.332v-66.134c-177.062-19.198-320-162.136-339.208-339.198h-66.126v-85.334h66.124c19.208-177.062 162.144-320 339.208-339.208v-66.126h85.332v66.124c177.062 19.208 320 162.146 339.21 339.208h66.126v85.334h-66.124zM512 149.334c-164.274 0-298.668 134.396-298.668 298.666 0 164.272 134.394 298.666 298.668 298.666 164.27 0 298.664-134.396 298.664-298.666s-134.394-298.666-298.664-298.666z" />
<glyph unicode="&#xe94b;" glyph-name="android-lock" d="M752 588h-40v80c0 110-90 200-200 200s-200-90-200-200v-80h-40c-44.004 0-80-35.996-80-80v-400c0-44.004 35.996-80 80-80h480c44.004 0 80 35.996 80 80v400c0 44.004-35.996 80-80 80zM512 224c-44.004 0-80 35.996-80 80s35.996 80 80 80 80-35.996 80-80-35.996-80-80-80zM636.004 588h-248.008v80c0 68.008 56.006 124.004 124.004 124.004 68.008 0 124.004-55.996 124.004-124.004v-80z" />
<glyph unicode="&#xe94c;" glyph-name="android-mail" d="M874.664 800h-725.328c-46.938 0-85.336-38.396-85.336-85.334v-533.332c0-46.938 38.398-85.334 85.336-85.334h725.328c46.938 0 85.336 38.396 85.336 85.334v533.332c0 46.938-38.398 85.334-85.336 85.334zM864 618.666l-352-234.666-352 234.666v85.334l352-234.666 352 234.666v-85.334z" />
<glyph unicode="&#xe94d;" glyph-name="android-map" d="M874.666 832c-4.352 0-8.792-2.738-18.352-6.414s-216.314-83.19-216.314-83.19l-256 89.604-241.062-81.062c-8.544-2.146-14.938-10.666-14.938-21.332v-644.272c0-12.792 8.542-21.334 21.332-21.334 3.656 0 13.010 4.66 18.174 6.638s216.494 82.968 216.494 82.968l256-89.606 241.062 81.062c8.542 2.146 14.938 10.668 14.938 21.334v644.272c0 12.79-8.542 21.332-21.334 21.332zM640 149.334l-256 89.604v507.73l256-89.606v-507.728z" />
<glyph unicode="&#xe94e;" glyph-name="android-menu" d="M128 192h768v85.332h-768v-85.332zM128 405.332h768v85.334h-768v-85.334zM128 704v-85.33h768v85.33h-768z" />
<glyph unicode="&#xe94f;" glyph-name="android-microphone" d="M512 320c75.424 0 137.142 61.848 137.142 137.428v301.144c0 75.58-61.718 137.428-137.142 137.428s-137.142-61.848-137.142-137.428v-301.144c0-75.58 61.718-137.428 137.142-137.428zM754.278 470.904c0-137.428-116.564-233.63-242.278-233.63s-242.278 96.204-242.278 233.63h-77.722c0-155.746 123.438-286.306 274.288-306.93v-163.974h91.426v163.974c150.848 22.904 274.286 151.184 274.286 306.93h-77.722z" />
<glyph unicode="&#xe950;" glyph-name="android-microphone-off" d="M735.902 250.692l-361.902 361.226v-0.692l-221.776 221.712-48.382-48.082 270.158-269.796v-57.632c0-75.58 62.242-137.428 137.82-137.428 17.22 0 33.904 3.24 49.13 9.090l64.778-64.548c-34.666-17.586-73.624-27.72-113.564-27.72-125.972 0-242.73 97.18-242.73 233.18h-77.888c0-154.002 124.454-285.404 274.454-306.028v-163.974h92v163.974c44 6.704 86.132 22.444 123.254 45.244l190.556-190.156 48.066 48-67.694 67.57-116.432 115.918 116.448-115.918-116.296 116.060zM650 457.428v301.144c0 75.58-62.418 137.428-138 137.428s-138-61.848-138-137.428v-50.488l274.218-273.936c1.34 7.582 1.782 15.358 1.782 23.28zM832.878 470h-77.882c0-40.992-10.996-79.352-29.862-112.394l55.144-55.032c33.046 48.22 52.6 105.574 52.6 167.426zM919.998 67.146l-67.794 67.486 67.71-67.57z" />
<glyph unicode="&#xe951;" glyph-name="android-more-horizontal" d="M272 528c-44.004 0-80-35.996-80-80s35.996-80 80-80 80 35.996 80 80-35.996 80-80 80zM752 528c-44.004 0-80-35.996-80-80s35.996-80 80-80 80 35.996 80 80-35.996 80-80 80zM512 528c-44.004 0-80-35.996-80-80s35.996-80 80-80 80 35.996 80 80-35.996 80-80 80z" />
<glyph unicode="&#xe952;" glyph-name="android-more-vertical" d="M592 688c0 44.004-35.996 80-80 80s-80-35.996-80-80 35.996-80 80-80 80 35.996 80 80zM592 208c0 44.004-35.996 80-80 80s-80-35.996-80-80 35.996-80 80-80 80 35.996 80 80zM592 448c0 44.004-35.996 80-80 80s-80-35.996-80-80 35.996-80 80-80 80 35.996 80 80z" />
<glyph unicode="&#xe953;" glyph-name="android-navigate" d="M512 832l-320-738.124 29.876-29.876 290.124 128 290.124-128 29.876 29.876z" />
<glyph unicode="&#xe954;" glyph-name="android-notifications" d="M512 32c45.558 0 82.822 37.438 82.822 83.2h-165.646c0-45.762 37.266-83.2 82.824-83.2zM781.178 281.6v228.8c0 126.88-89.032 235.036-207.060 262.082v29.118c0 35.364-26.914 62.4-62.118 62.4s-62.118-27.036-62.118-62.4v-29.118c-118.030-27.046-207.060-135.202-207.060-262.082v-228.8l-82.822-83.2v-41.6h704v41.6l-82.822 83.2z" />
<glyph unicode="&#xe955;" glyph-name="android-notifications-none" d="M514 719.058c14.166 0 47.822-8.958 47.822-8.958 91.178-20.894 155.356-104.878 155.356-199.7v-255.224l34.218-34.374h-478.792l34.218 34.374v255.224c0 94.82 64.178 178.806 155.356 199.7 0 0 36.086 8.958 47.822 8.958zM512 864c-35.204 0-62.118-27.036-62.118-62.4v-29.118c-118.030-27.046-207.060-135.202-207.060-262.082v-228.8l-82.822-83.2v-41.6h704v41.6l-82.822 83.2v228.8c0 126.88-89.032 235.036-207.060 262.082v29.118c0 35.364-26.914 62.4-62.118 62.4v0zM594.822 115.2h-165.646c0-45.762 37.266-83.2 82.824-83.2s82.822 37.438 82.822 83.2v0z" />
<glyph unicode="&#xe956;" glyph-name="android-notifications-off" d="M512 32.688c45.628 0 82.95 37.312 82.95 83.312h-165.9c0-46 37.322-83.312 82.95-83.312zM262.166 745.656l0.106-0.148-66.092 65.938-48.172-48.212 126.084-126.306c-20.316-37.97-32.092-81.32-32.092-127.068v-229.11l-82-83.312v-41.438h595.486l72.364-72.66 48.158 48.602-24.208 24.058h0.632l-590.266 589.656zM782 509.86c0 127.052-90 235.354-208 262.436v29.156c0 35.412-26.742 62.486-62 62.486-35.256 0-62-27.074-62-62.486v-29.156c-30-6.876-58.096-19.002-83.5-35.326l415.5-415.68v188.57z" />
<glyph unicode="&#xe957;" glyph-name="android-open" d="M810.68 149.336h-597.36v597.328h266.68v85.336h-266.68c-46.938 0-85.32-38.394-85.32-85.336v-597.328c0-46.942 38.382-85.336 85.32-85.336h597.36c46.938 0 85.32 38.394 85.32 85.336v266.664h-85.32v-266.664zM576 832v-85.336h174.948l-430.95-430.93 59.732-59.732 430.952 430.94v-174.942h85.318v320h-320z" />
<glyph unicode="&#xe958;" glyph-name="android-options" d="M64 192h544v-64h-544v64zM800 192h160v-64h-160v64zM768 65c0-35.898-28.654-65-64-65v0c-35.346 0-64 29.102-64 65v190c0 35.898 28.654 65 64 65v0c35.346 0 64-29.102 64-65v-190zM64 480h160v-64h-160v64zM416 480h544v-64h-544v64zM384 353c0-35.898-28.654-65-64-65v0c-35.346 0-64 29.102-64 65v190c0 35.898 28.654 65 64 65v0c35.346 0 64-29.102 64-65v-190zM64 768h544v-64h-544v64zM800 768h160v-64h-160v64zM768 641c0-35.898-28.654-65-64-65v0c-35.346 0-64 29.102-64 65v190c0 35.898 28.654 65 64 65v0c35.346 0 64-29.102 64-65v-190z" />
<glyph unicode="&#xe959;" glyph-name="android-people" d="M674.908 496c67.198 0 122.184 54.004 122.184 120 0 65.994-54.986 120-122.184 120s-122.18-54.006-122.18-120c0-65.996 54.982-120 122.18-120zM349.092 496c67.198 0 122.18 54.004 122.18 120 0 65.994-54.982 120-122.18 120s-122.184-54.006-122.184-120c0-65.996 54.986-120 122.184-120zM349.092 408c-95.716 0-285.092-45.996-285.092-140v-108h576v108c0 94.004-195.198 140-290.908 140zM674.908 385.994c-12.21 0-20.65 0-34.908-1.994 46.852-34.004 64-56 64-116v-108h256v108c0 94.004-189.376 117.994-285.092 117.994z" />
<glyph unicode="&#xe95a;" glyph-name="android-person" d="M512 448c105.61 0 192 86.402 192 192s-86.39 192-192 192-192-86.402-192-192 86.39-192 192-192zM512 352c-127.196 0-384-64.804-384-192v-96h768v96c0 127.196-256.804 192-384 192z" />
<glyph unicode="&#xe95b;" glyph-name="android-person-add" d="M608 448c105.61 0 192 86.402 192 192s-86.39 192-192 192-192-86.402-192-192 86.39-192 192-192zM608 352c-127.196 0-384-64.804-384-192v-96h768v96c0 127.196-256.804 192-384 192zM224 512v128h-64v-128h-128v-64h128v-128h64v128h128v64h-128z" />
<glyph unicode="&#xe95c;" glyph-name="android-phone-landscape" d="M960 242.288v411.426c0 45.262-36.652 82.286-81.456 82.286h-733.088c-44.804 0-81.456-37.024-81.456-82.286v-411.426c0-45.264 36.652-82.288 81.456-82.288h733.090c44.802 0 81.454 37.024 81.454 82.288zM224 232v432h576v-432h-576z" />
<glyph unicode="&#xe95d;" glyph-name="android-phone-portrait" d="M717.712 896h-411.426c-45.262 0-82.286-36.652-82.286-81.456v-733.090c0-44.802 37.024-81.454 82.286-81.454h411.426c45.264 0 82.288 36.652 82.288 81.456v733.088c0 44.804-37.024 81.456-82.288 81.456zM728 160h-432v576h432v-576z" />
<glyph unicode="&#xe95e;" glyph-name="android-pin" d="M512 896c-176.008 0-320-141.114-320-313.602 0-235.198 320-582.398 320-582.398s320 347.2 320 582.398c0 172.488-143.992 313.602-320 313.602zM512 470.398c-63.992 0-114.288 49.29-114.288 112 0 62.714 50.294 112 114.288 112s114.288-49.286 114.288-112c0-62.71-50.296-112-114.288-112z" />
<glyph unicode="&#xe95f;" glyph-name="android-plane" d="M896 288v80l-320 208v225.6c0 35.366-29.64 62.4-64 62.4-34.358 0-64-27.036-64-62.4v-225.6l-320-208v-80l320 96v-227.204l-96-62.398v-62.398l160 32 160-32v62.398l-96 62.398v227.204l320-96z" />
<glyph unicode="&#xe960;" glyph-name="android-playstore" d="M928 656h-208c0 114-93.124 207.718-208 207.718s-208-93.718-208-207.718h-208c37.376-432 26-624 26-624h779.998c-0.002 0-11.376 196 26.002 624zM512 811.79c86.016 0 155.998-69.79 155.998-155.79h-311.998c0 86 69.982 155.79 156 155.79zM408 164.72v337.546l285.998-168.774-285.998-168.772z" />
<glyph unicode="&#xe961;" glyph-name="android-print" d="M799.9 640h-575.8c-70.452 0-128.1-57.606-128.1-128v-277.334h159.798v-170.666h512.402v170.666h159.8v277.334c0 70.394-57.65 128-128.1 128zM704 128h-384v256h384v-256zM768.202 832h-512.404v-160h512.402v160z" />
<glyph unicode="&#xe962;" glyph-name="android-radio-button-off" d="M512 864c-228.798 0-416-187.202-416-416s187.202-416 416-416 416 187.202 416 416-187.202 416-416 416zM512 115.202c-183.036 0-332.798 149.764-332.798 332.798s149.762 332.8 332.798 332.8 332.8-149.764 332.8-332.8-149.764-332.798-332.8-332.798z" />
<glyph unicode="&#xe963;" glyph-name="android-radio-button-on" d="M512 656c-114.4 0-208-93.6-208-208s93.6-208 208-208 208 93.6 208 208-93.6 208-208 208zM512 864c-228.798 0-416-187.202-416-416s187.202-416 416-416 416 187.202 416 416-187.202 416-416 416zM512 115.2c-183.036 0-332.8 149.766-332.8 332.8s149.764 332.8 332.8 332.8 332.8-149.764 332.8-332.8-149.764-332.8-332.8-332.8z" />
<glyph unicode="&#xe964;" glyph-name="android-refresh" d="M512 184c-145.194 0-264 118.81-264 264 0 145.202 118.806 264 264 264 72.6 0 138.598-30.8 184.812-79.202l-140.812-140.798h308v308l-103.396-103.404c-63.792 63.808-151.792 103.404-248.604 103.404-193.594 0-352-158.406-352-352s156.188-352 352-352c162.090 0 296.574 108.268 338.802 256h-93.102c-37.49-99.122-134.276-168-245.7-168z" />
<glyph unicode="&#xe965;" glyph-name="android-remove" d="M192 490h640v-84h-640v84z" />
<glyph unicode="&#xe966;" glyph-name="android-remove-circle" d="M512 864c-229.75 0-416-186.25-416-416s186.25-416 416-416 416 186.25 416 416-186.25 416-416 416zM726 406h-428v84h428v-84z" />
<glyph unicode="&#xe967;" glyph-name="android-restaurant" d="M329.704 400.122l123.668 120.502-305.932 295.964c-67.252-65.528-67.252-173.354 0-238.88l182.264-177.586zM624.778 476.24c67.272-29.604 160.566-8.464 227.82 59.186 82.444 80.33 99.818 196.606 34.726 257.92-62.93 63.42-182.262 46.49-264.708-33.842-69.436-67.65-91.132-158.552-60.748-221.972-95.478-95.136-423.104-414.346-423.104-414.346l60.754-59.186 299.42 291.732 299.416-291.732 60.748 59.186-299.418 291.738 65.094 61.316z" />
<glyph unicode="&#xe968;" glyph-name="android-sad" d="M512 384c-90.886 0-167.35-52.152-204.41-128h408.82c-37.060 75.848-113.524 128-204.41 128zM512 864c-230.874 0-416-187.2-416-416s185.126-416 416-416 416 187.2 416 416c0 228.8-187.198 416-416 416zM512 115.2c-183.036 0-332.808 149.766-332.808 332.8 0 183.036 149.774 332.8 332.808 332.8s332.808-149.764 332.808-332.8c0-183.036-149.772-332.8-332.808-332.8zM657.6 489.6c35.366 0 62.402 27.036 62.402 62.4s-27.038 62.4-62.402 62.4c-35.364 0-62.4-27.036-62.4-62.4s27.036-62.4 62.4-62.4zM366.4 489.6c35.364 0 62.4 27.036 62.4 62.4s-27.038 62.4-62.4 62.4c-35.366 0-62.402-27.036-62.402-62.4s27.038-62.4 62.402-62.4z" />
<glyph unicode="&#xe969;" glyph-name="android-search" d="M675.018 349.256h-35.002l-13.142 10.972c41.582 50.464 67.844 114.108 67.844 186.514-0.002 157.994-126.926 285.258-284.448 285.258-155.366 0-282.27-127.264-282.27-285.258s126.904-285.256 284.45-285.256c70.022 0 135.662 26.334 185.982 68.016l13.122-10.974v-35.102l218.806-219.426 65.64 65.828-220.982 219.428zM412.45 349.256c-109.404 0-196.926 87.774-196.926 197.486 0 109.716 87.522 197.484 196.926 197.484 109.4 0 196.924-87.768 196.924-197.484 0-109.712-87.524-197.486-196.924-197.486z" />
<glyph unicode="&#xe96a;" glyph-name="android-send" d="M96 64l832 384-832 384v-298.666l596-85.334-596-85.334z" />
<glyph unicode="&#xe96b;" glyph-name="android-settings" d="M827.934 406.4c2.12 12.47 2.12 27.036 2.12 41.6s-2.12 27.036-2.12 41.6l89.334 68.636c8.52 6.236 10.638 16.634 4.26 27.036l-85.098 143.528c-4.258 8.328-17.014 12.47-25.534 8.328l-106.372-41.602c-21.276 16.636-46.788 31.202-72.32 41.602l-14.896 110.234c-2.12 8.308-10.638 16.636-21.276 16.636h-170.196c-10.636 0-19.154-8.328-21.274-16.636l-17.016-110.234c-25.534-10.4-48.928-24.964-72.342-41.602l-106.372 41.602c-10.638 4.142-21.276 0-25.534-8.328l-85.098-143.53c-4.238-8.306-2.122-20.798 4.258-27.036l91.482-68.634c0-14.564-2.12-27.036-2.12-41.6s2.12-27.036 2.12-41.6l-89.336-68.636c-8.52-6.236-10.636-16.634-4.26-27.036l85.098-143.528c4.26-8.328 17.016-12.47 25.534-8.328l106.374 41.602c21.274-16.636 46.788-31.202 72.32-41.602l17.016-110.234c2.138-10.4 10.636-16.636 21.274-16.636h170.196c10.638 0 19.156 8.328 21.276 16.636l17.036 110.234c25.514 10.4 48.928 24.964 72.32 41.602l106.374-41.602c10.636-4.142 21.274 0 25.534 8.328l85.098 143.53c4.258 8.306 2.12 20.798-4.26 27.036l-93.6 68.634zM510.936 302.4c-82.978 0-148.92 64.47-148.92 145.6s65.942 145.6 148.92 145.6 148.922-64.47 148.922-145.6-65.944-145.6-148.922-145.6z" />
<glyph unicode="&#xe96c;" glyph-name="android-share" d="M896 464l-320 304v-170.668c-298.668-42.666-405.334-256-448-469.332 106.666 149.332 234.666 217.604 448 217.604v-174.938l320 293.334z" />
<glyph unicode="&#xe96d;" glyph-name="android-share-alt" d="M767.644 271.146c-32.090 0-62.048-10.652-83.442-31.958l-305.914 176.84c2.142 10.656 4.284 19.186 4.284 29.838 0 10.656-2.142 19.186-4.284 29.838l301.652 174.7c23.524-21.306 53.482-34.082 87.704-34.082 70.59 0 128.356 57.532 128.356 127.84 0 70.304-57.766 127.838-128.356 127.838-70.594 0-128.358-57.534-128.358-127.84 0-10.654 2.13-19.186 4.284-29.838l-301.642-174.7c-23.534 21.308-53.482 34.082-87.712 34.082-70.592 0-126.216-57.532-126.216-127.84 0-70.306 57.754-127.84 128.356-127.84 34.23 0 64.178 12.778 87.712 34.084l303.782-176.842c-2.152-8.51-4.282-17.042-4.282-27.694 0-68.188 55.612-123.574 124.074-123.574 68.458 0 124.072 55.386 124.072 123.574 0.002 68.188-55.61 123.574-124.070 123.574z" />
<glyph unicode="&#xe96e;" glyph-name="android-star" d="M512 214.628l249.66-150.628-66.042 284.132 220.382 191.050-290.534 24.95-113.466 267.868-113.486-267.868-290.514-24.95 220.384-191.050-66.062-284.132z" />
<glyph unicode="&#xe96f;" glyph-name="android-star-half" d="M916 539.182l-290.534 24.952-113.466 267.866-113.486-267.868-290.514-24.95 220.384-191.048-66.062-284.134 249.678 150.628 249.66-150.628-66.042 284.132 220.382 191.050zM545.062 269.426l-33.062 19.948-0.004 378.554 69.58-164.26 178.108-15.296-135.138-117.15 40.484-174.174-119.968 72.378z" />
<glyph unicode="&#xe970;" glyph-name="android-star-outline" d="M916 539.182l-290.534 24.952-113.466 267.866-113.486-267.868-290.514-24.95 220.384-191.048-66.062-284.134 249.678 150.628 249.66-150.628-66.042 284.132 220.382 191.050zM545.062 269.428l-33.062 19.948-153.036-92.328 40.496 174.172-135.142 117.152 178.084 15.296 69.594 164.262 69.58-164.26 178.108-15.296-135.138-117.15 40.484-174.174-119.968 72.378z" />
<glyph unicode="&#xe971;" glyph-name="android-stopwatch" d="M464 346.666h96v261.334h-96v-261.334zM815.34 619.458l61.572 61.572-67.884 67.882-61.57-61.572c-65.024 50.546-146.72 80.66-235.458 80.66-212.078 0-384-171.922-384-384s171.922-384 384-384 384 171.922 384 384c0 88.738-30.114 170.434-80.66 235.458zM724.132 171.868c-56.664-56.664-132-87.868-212.132-87.868s-155.47 31.204-212.132 87.868c-56.664 56.662-87.868 132-87.868 212.132s31.204 155.47 87.868 212.132c56.662 56.664 132 87.868 212.132 87.868s155.468-31.204 212.132-87.868c56.664-56.662 87.868-132 87.868-212.132s-31.204-155.47-87.868-212.132zM384 896h256v-96h-256v96z" />
<glyph unicode="&#xe972;" glyph-name="android-subway" d="M512 864c-187.728 0-352-21.336-352-170.668v-426.664c0-83.208 66.124-149.332 149.334-149.332l-53.334-53.336v-32h512v32l-53.334 53.336c83.208 0 149.334 66.124 149.334 149.332v426.664c0 149.332-164.272 170.668-352 170.668zM320 192c-36.272 0-64 27.73-64 64 0 36.274 27.728 64 64 64s64-27.726 64-64c0-36.27-27.728-64-64-64zM480 480h-224v192h224v-192zM704 192c-36.272 0-64 27.73-64 64 0 36.274 27.728 64 64 64s64-27.726 64-64c0-36.27-27.728-64-64-64zM768 480h-224v192h224v-192z" />
<glyph unicode="&#xe973;" glyph-name="android-sunny" d="M512 640c50.998 0 99.134-20.050 135.542-56.458s56.458-84.544 56.458-135.542-20.050-99.134-56.458-135.542c-36.408-36.408-84.544-56.458-135.542-56.458s-99.134 20.050-135.542 56.458c-36.408 36.408-56.458 84.544-56.458 135.542s20.050 99.134 56.458 135.542c36.408 36.408 84.544 56.458 135.542 56.458zM554.666 896h-85.332v-128h85.332v128zM812.792 808.542l-76.792-76.812 59.728-59.73 76.812 76.792-59.748 59.75zM211.208 808.542l-59.75-59.75 76.814-76.792 59.728 59.73-76.792 76.812zM512 704c-140.792 0-256-115.208-256-256s115.208-256 256-256 256 115.208 256 256-115.208 256-256 256v0zM960 490.668h-128v-85.336h128v85.336zM192 490.668h-128v-85.336h128v85.336zM795.728 224l-59.728-59.73 76.792-76.812 59.75 59.75-76.814 76.792zM228.272 224l-76.812-76.792 59.75-59.75 76.79 76.812-59.728 59.73zM554.666 128h-85.332v-128c12.792 0 85.332 0 85.332 0v128z" />
<glyph unicode="&#xe974;" glyph-name="android-sync" d="M512 773.82v122.18l-160-162.908 160-162.912v122.186c131.992 0 240-109.964 240-244.366 0-40.726-10-79.428-28.008-114.032l58.008-59.062c31.992 50.914 50 109.976 50 173.094 0 179.198-144.004 325.82-320 325.82zM512 203.632c-132.002 0-240 109.976-240 244.368 0 40.726 10 79.418 27.998 114.040l-57.998 59.052c-32.002-48.872-50-109.964-50-173.092 0-179.198 144.004-325.82 320-325.82v-122.18l160 162.906-160 162.914v-122.188z" />
<glyph unicode="&#xe975;" glyph-name="android-textsms" d="M816 832h-624c-44.004 0-64-35.996-64-80v-688l128 128h560c44.004 0 80 35.996 80 80v480c0 44.004-35.996 80-80 80zM396.8 476h-76.8v80h76.8v-80zM550.4 476h-76.8v80h76.8v-80zM704 476h-76.8v80h76.8v-80z" />
<glyph unicode="&#xe976;" glyph-name="android-time" d="M512 874c-236.422 0-426-191.702-426-426s189.578-426 426-426 426 191.702 426 426-191.702 426-426 426zM512 107.2c-187.436 0-340.8 153.366-340.8 340.8s153.364 340.8 340.8 340.8 340.8-153.364 340.8-340.8-153.364-340.8-340.8-340.8zM533.3 661h-63.9v-255.6l223.65-134.186 31.95 53.25-191.7 112.888z" />
<glyph unicode="&#xe977;" glyph-name="android-train" d="M160 266.668c0-83.208 66.124-149.332 149.334-149.332l-53.334-53.336v-32h512v32l-53.334 53.336c83.208 0 149.334 66.124 149.334 149.332v426.664c0 149.332-164.272 170.668-352 170.668s-352-21.336-352-170.668v-426.664zM512 208c-44.004 0-80 35.994-80 79.998s35.996 80.002 80 80.002 80-35.998 80-80.002-35.996-79.998-80-79.998zM768 512h-512v192h512v-192z" />
<glyph unicode="&#xe978;" glyph-name="android-unlock" d="M752 588h-40v80c0 110-90 200-200 200s-200-90-200-200h75.996c0 68.008 56.006 124.004 124.004 124.004 68.008 0 124.004-55.996 124.004-124.004h-0.004v-80h-364c-44.004 0-80-35.996-80-80v-400c0-44.004 35.996-80 80-80h480c44.004 0 80 35.996 80 80v400c0 44.004-35.996 80-80 80zM512 224c-44.004 0-80 35.996-80 80s35.996 80 80 80 80-35.996 80-80-35.996-80-80-80z" />
<glyph unicode="&#xe979;" glyph-name="android-upload" d="M806.004 525.998c-28.008 137.998-148.008 242.002-294.004 242.002-115.996 0-215.996-65.996-265.996-162.002-120-12.002-214.004-113.994-214.004-237.998 0-131.992 107.998-240 240-240h520c110 0 200 90 200 200 0 105.996-81.992 192.002-185.996 197.998zM576 408v-152h-128v152h-136l200 200 200-200h-136z" />
<glyph unicode="&#xe97a;" glyph-name="android-volume-down" d="M128 576v-256h170.668l213.332-223.086v702.17l-213.332-223.084h-170.668zM704 448c0 76.798-42.666 144.814-106.666 177.726v-353.272c64 30.73 106.666 98.746 106.666 175.546z" />
<glyph unicode="&#xe97b;" glyph-name="android-volume-mute" d="M128 576v-256h170.668l213.332-223.086v702.17l-213.332-223.084h-170.668z" />
<glyph unicode="&#xe97c;" glyph-name="android-volume-off" d="M811 448c0-45.434-9.766-88.724-27.206-127.71l63.76-63.76c31.012 56.81 48.446 122.164 48.446 191.47 0 186.512-128 344.508-298 384v-89.956c124-37.308 213-155.808 213-294.044zM512 799.084l-102.042-104.96 102.042-102.038zM841.684 166.23l-659.452 659.456-48-48 180.998-180.826-16.56-20.86h-170.67v-256h170.668l213.332-223.086v303.086l189.83-189.372c-30.24-25.514-65.83-45.054-103.83-56.672v-89.956c62 14.344 117.992 44.326 164.63 85.618l79.22-79.386 48 48.086-48.004 48.078-0.162-0.166zM704.376 448c0 76.798-42.376 144.814-106.376 177.726v-119.64l101.602-101.602c3.108 14.038 4.774 28.608 4.774 43.516z" />
<glyph unicode="&#xe97d;" glyph-name="android-volume-up" d="M128 576v-256h170.668l213.332-223.086v702.17l-213.332-223.084h-170.668zM704 448c0 76.798-42.666 144.814-106.666 177.726v-353.272c64 30.73 106.666 98.746 106.666 175.546zM597.334 832v-89.956c123.728-37.308 213.334-155.808 213.334-294.044 0-138.238-89.606-256.738-213.334-294.044v-89.956c170.666 39.492 298.666 197.486 298.666 384 0 186.512-128 344.508-298.666 384z" />
<glyph unicode="&#xe97e;" glyph-name="android-walk" d="M576 736c44.446 0 79.994 35.552 79.994 80 0 44.45-35.548 80-79.994 80s-80.006-35.55-80.006-80c0-44.448 35.56-80 80.006-80zM576 496h208v80h-144l-89.604 138.666c-15.396 23.334-36.272 36.272-61.866 36.272-6.396 0-17.656-1.062-25.598-3.494l-222.932-75.444v-224h80v160l81.062 32-161.062-640h80l113.396 328.542 100.604-136.542v-192h76v256l-114.062 192 39.49 123.728 40.572-75.728z" />
<glyph unicode="&#xe97f;" glyph-name="android-warning" d="M64 32h896l-448 832-448-832zM560 160h-96v96h96v-96zM560 320h-96v192h96v-192z" />
<glyph unicode="&#xe980;" glyph-name="android-watch" d="M832 448c0 102.002-48.008 192.002-121.992 250l-38.008 230h-320l-38.008-230c-73.984-57.998-121.992-147.998-121.992-250 0-101.992 48.008-191.992 121.992-250l38.008-230h320l38.008 230c73.984 58.008 121.992 148.008 121.992 250zM272 448c0 132.002 108.008 240 240 240s240-107.998 240-240c0-131.992-108.008-240-240-240s-240 108.008-240 240z" />
<glyph unicode="&#xe981;" glyph-name="android-wifi" d="M512 502.562c-45.758 0-83.194-37.058-83.194-82.36 0-45.304 37.436-82.364 83.194-82.364 45.756 0 83.194 37.058 83.194 82.364 0 45.302-37.438 82.36-83.194 82.36zM761.6 420.204c0 135.892-112.326 247.078-249.6 247.078s-249.6-111.186-249.6-247.078c0-90.606 49.922-170.894 124.792-214.144l41.614 72.064c-49.944 28.834-83.208 80.306-83.208 142.080 0 90.59 74.866 164.716 166.402 164.716 91.542 0 166.402-74.126 166.402-164.716 0-61.774-33.266-113.246-83.208-142.080l41.614-72.064c74.866 43.248 124.792 123.538 124.792 214.144zM512 832c-228.806 0-416-185.308-416-411.796 0-152.374 83.184-284.14 208-356.204l41.598 72.064c-99.838 57.648-166.414 162.648-166.414 284.138 0 181.186 149.782 329.436 332.816 329.436s332.812-148.25 332.812-329.436c0-121.49-66.568-228.542-166.41-284.138l41.598-72.064c124.812 72.064 208 203.83 208 356.204 0 226.488-187.194 411.796-416 411.796z" />
<glyph unicode="&#xe982;" glyph-name="aperture" d="M512 896c-247.424 0-448-200.576-448-448s200.576-448 448-448 448 200.576 448 448-200.576 448-448 448zM783.53 176.47c-72.53-72.526-168.96-112.47-271.53-112.47s-199 39.944-271.53 112.47c-72.526 72.53-112.47 168.96-112.47 271.53s39.944 199 112.47 271.53c72.53 72.526 168.96 112.47 271.53 112.47s199-39.944 271.53-112.47c72.526-72.53 112.47-168.96 112.47-271.53s-39.944-199-112.47-271.53zM400.086 747.866c-81.262-30.342-146.868-92.764-181.434-171.866h293.348l-111.914 171.866zM825.594 384c4.198 20.68 6.406 42.082 6.406 64 0 73.248-24.628 140.734-66.032 194.668l-143.968-258.668h203.594zM719.946 691.21c-55.932 47.868-128.558 76.79-207.946 76.79-15.932 0-31.588-1.182-46.896-3.43l156.6-252.57 98.242 179.21zM198.408 512c-4.2-20.68-6.408-42.082-6.408-64 0-73.278 24.648-140.788 66.082-194.732l143.918 258.732h-203.592zM623.918 148.136c81.262 30.342 146.866 92.764 181.43 171.864h-293.348l111.918-171.864zM304.092 204.758c55.926-47.848 128.536-76.758 207.908-76.758 15.938 0 31.598 1.184 46.912 3.432l-156.584 252.568-98.236-179.242z" />
<glyph unicode="&#xe983;" glyph-name="archive" d="M512 344.6l256 231.4h-160v192h-192.8v-192h-159.2zM930.8 365.6l-142.8 110h-84l124-123.6h-101.2c-4.6 0-8.6-2.4-10.8-5.8l-36.8-91h-335l-36.8 91c-2 3.6-6.2 5.8-10.8 5.8h-101l124.4 123.6h-84.4l-142.8-110c-21.2-12.4-31.6-38-28.2-63.2l17.4-133.8c4.6-26.2 19.4-40.6 56.2-40.6h747.6c38.2 0 51.6 15.2 56.2 40.6l17.4 133.8c3.4 25.8-7.4 50.8-28.6 63.2z" />
<glyph unicode="&#xe984;" glyph-name="arrow-down-a" d="M513 63l384 384h-224v384h-320v-384h-224z" />
<glyph unicode="&#xe985;" glyph-name="arrow-down-b" d="M197.8 590.6l3.6-4.2 272-313c9.2-10.6 23-17.2 38.4-17.2s29.2 6.8 38.4 17.2l276.4 317.6c3.4 5 5.4 11 5.4 17.4 0 17.4-14.8 31.6-33.2 31.6v0h-573.6c-18.4 0-33.2-14.2-33.2-31.6 0-6.6 2.2-12.8 5.8-17.8z" />
<glyph unicode="&#xe986;" glyph-name="arrow-down-c" d="M767.2 314.6l-210-200.6c-11.6-12-27.4-18-44.8-18s-33 6-44.8 18l-210.8 200.6c-25 23.8-25 62.6 0 86.4s65.4 23.8 90.4 0l100.8-96.4v434c0 33.8 28.6 61.2 64 61.2s64-27.4 64-61.2v-434l100.8 96.4c25 23.8 65.4 23.8 90.4 0s25-62.4 0-86.4z" />
<glyph unicode="&#xe987;" glyph-name="arrow-expand" d="M548 540.6l127.8 127.6-99.8 99.8h256v-256l-99.8 99.8-127.6-127.8zM548 355.4l127.8-127.6-99.8-99.8h256v256l-99.8-99.8-127.6 127.8zM476 355.4l-127.8-127.6 99.8-99.8h-256v256l99.8-99.8 127.6 127.8zM476 540.6l-127.8 127.6 99.8 99.8h-256v-256l99.8 99.8 127.6-127.8z" />
<glyph unicode="&#xe988;" glyph-name="arrow-graph-down-left" d="M64 192v320l121.6-121.6 261.8 281.6 214-224 298.6 256-298.6-405.4-214 213.4-187-196.4 123.6-123.6z" />
<glyph unicode="&#xe989;" glyph-name="arrow-graph-down-right" d="M640 192l123.6 123.6-187 196.4-214-213.4-298.6 405.4 298.6-256 214 224 261.8-281.6 121.6 121.6v-320z" />
<glyph unicode="&#xe98a;" glyph-name="arrow-graph-up-left" d="M384 704l-123.6-123.6 187-196.4 214 213.4 298.6-405.4-298.6 256-214-224-261.8 281.6-121.6-121.6v320z" />
<glyph unicode="&#xe98b;" glyph-name="arrow-graph-up-right" d="M640 704l123.6-123.6-187-196.4-214 213.4-298.6-405.4 298.6 256 214-224 261.8 281.6 121.6-121.6v320z" />
<glyph unicode="&#xe98c;" glyph-name="arrow-left-a" d="M129 447l384-384v224h384v320h-384v224z" />
<glyph unicode="&#xe98d;" glyph-name="arrow-left-b" d="M654.6 762.2l-4.2-3.6-313-272c-10.6-9.2-17.2-23-17.2-38.4s6.8-29.2 17.2-38.4l317.6-276.4c5-3.4 11-5.4 17.4-5.4 17.4 0 31.6 14.8 31.6 33.2v0 573.6c0 18.4-14.2 33.2-31.6 33.2-6.6 0-12.8-2.2-17.8-5.8z" />
<glyph unicode="&#xe98e;" glyph-name="arrow-left-c" d="M378.6 703.2l-200.6-210c-12-11.6-18-27.4-18-44.8s6-33 18-44.8l200.6-210.8c23.8-25 62.6-25 86.4 0s23.8 65.4 0 90.4l-96.2 100.8h434c33.8 0 61.2 28.6 61.2 64s-27.4 64-61.2 64h-434l96.4 100.8c23.8 25 23.8 65.4 0 90.4-24 25-62.6 25-86.6 0z" />
<glyph unicode="&#xe98f;" glyph-name="arrow-move" d="M960 448l-192 192v-152h-216v216h152l-192 192-192-192h152v-216h-216v152l-192-192 192-192v152h216v-216h-152l192-192 192 192h-152.4l-0.8 217 217.2-0.6v-152.4z" />
<glyph unicode="&#xe990;" glyph-name="arrow-resize" d="M576 768l99.8-99.8-127.8-127.6-256.2-256.4-99.8 99.8v-256h256l-99.8 99.8 384 384 99.8-99.8v256z" />
<glyph unicode="&#xe991;" glyph-name="arrow-return-left" d="M384 768v-128h496c8.8 0 16-7.2 16-16v-480c0-8.8-7.2-16-16-16h-608c-8.8 0-16 7.2-16 16v96c0 8.8 7.2 16 16 16h496v256h-384v-128l-256 192 256 192z" />
<glyph unicode="&#xe992;" glyph-name="arrow-return-right" d="M896 576l-256-192v128h-384v-256h496c8.8 0 16-7.2 16-16v-96c0-8.8-7.2-16-16-16h-608c-8.8 0-16 7.2-16 16v480c0 8.8 7.2 16 16 16h496v128l256-192z" />
<glyph unicode="&#xe993;" glyph-name="arrow-right-a" d="M897 447l-384 384v-224h-384v-320h384v-224z" />
<glyph unicode="&#xe994;" glyph-name="arrow-right-b" d="M369.4 133.8l4.2 3.6 313 272c10.6 9.2 17.2 23 17.2 38.4s-6.8 29.2-17.2 38.4l-317.6 276.4c-5 3.4-11 5.4-17.4 5.4-17.4 0-31.6-14.8-31.6-33.2v0-573.6c0-18.4 14.2-33.2 31.6-33.2 6.6 0 12.8 2.2 17.8 5.8z" />
<glyph unicode="&#xe995;" glyph-name="arrow-right-c" d="M645.4 703.2l200.6-210c12-11.6 18-27.4 18-44.8s-6-33-18-44.8l-200.6-210.8c-23.8-25-62.6-25-86.4 0s-23.8 65.4 0 90.4l96.4 100.8h-434c-34 0-61.4 28.6-61.4 64s27.4 64 61.2 64h434l-96.4 100.8c-23.8 25-23.8 65.4 0 90.4 24 25 62.6 25 86.6 0z" />
<glyph unicode="&#xe996;" glyph-name="arrow-shrink" d="M896 775.4l-163.8-163.6 99.8-99.8h-256v256l99.8-99.8 163.6 163.8zM896 120.6l-163.8 163.6 99.8 99.8h-256v-256l99.8 99.8 163.6-163.8zM128 120.6l163.8 163.6-99.8 99.8h256v-256l-99.8 99.8-163.6-163.8zM128 775.4l163.8-163.6-99.8-99.8h256v256l-99.8-99.8-163.6 163.8z" />
<glyph unicode="&#xe997;" glyph-name="arrow-swap" d="M128 304v-96c0-8.8 7.2-16 16-16h496v-128l256 192-256 192v-128h-496c-8.8 0-16-7.2-16-16zM896 592v96c0 8.8-7.2 16-16 16h-496v128l-256-192 256-192v128h496c8.8 0 16 7.2 16 16z" />
<glyph unicode="&#xe998;" glyph-name="arrow-up-a" d="M513 831l-384-384h224v-384h320v384h224z" />
<glyph unicode="&#xe999;" glyph-name="arrow-up-b" d="M826.2 305.4l-3.6 4.2-272 313c-9.2 10.6-23 17.2-38.4 17.2s-29.2-6.8-38.4-17.2l-276.4-317.6c-3.4-5-5.4-11-5.4-17.4 0-17.4 14.8-31.6 33.2-31.6v0h573.6c18.4 0 33.2 14.2 33.2 31.6 0 6.6-2.2 12.8-5.8 17.8z" />
<glyph unicode="&#xe99a;" glyph-name="arrow-up-c" d="M256.8 581.4l210 200.6c11.6 12 27.4 18 44.8 18s33-6 44.8-18l210.8-200.6c25-23.8 25-62.6 0-86.4s-65.4-23.8-90.4 0l-100.8 96.2v-434c0-33.8-28.6-61.2-64-61.2s-64 27.4-64 61.2v434l-100.8-96.4c-25-23.8-65.4-23.8-90.4 0-25 24-25 62.6 0 86.6z" />
<glyph unicode="&#xe99b;" glyph-name="asterisk" d="M960 512l-373.656-14.974 217.032 334.974-118.494 64-172.882-352-172.352 352-118.992-64 217-334.974-373.656 14.974v-128l371.074 20.132-207.774-340.132 111.938-64 172.762 352 172.762-352 111.898 64-207.734 340.132 371.074-20.132z" />
<glyph unicode="&#xe99c;" glyph-name="at" d="M907.6 145.8c-47.8-50.6-104.6-87.6-170.4-110.8-65.8-23.4-135.2-35-208.2-35-69.8 0-133.4 11-190.6 33.2-57.2 22-106.2 52.8-146.6 92.2-40.6 39.4-72 86.6-94.4 141.6s-33.4 115-33.4 180c0 64.2 12.2 123.6 36.6 178.2s57.6 102 99.8 142.2c42.2 40.2 91.4 71.6 148 94.6 56.2 22.6 116.6 34 180.6 34 55.2 0 108.8-8 160.6-24 52-16 98-40.2 138.2-72.2 40.2-32.2 72.2-72.2 96.2-120.4s36-104.8 36-169.8c0-48.2-6.6-90.8-20-127.6-13.4-37-31.2-67.8-53.6-92.8s-47.8-43.6-76.6-56c-28.8-12.4-59-18.6-90.6-18.6-32.4 0-58.4 7.6-78 22.8-19.4 15.2-29.2 34.6-29.2 57.8h-6c-12.2-19.2-30.8-37.6-56-54.8s-56-26-92.6-26c-55.2 0-97.8 18-127.8 54.2s-45 83-45 141c0 33.8 5.6 67 17 100s27.6 62.2 48.6 88c21 25.6 46.2 46.4 75.4 62s61.6 23.4 97.4 23.4c30.8 0 56.8-6.4 78-19.2 21-12.8 34.8-28.6 41.4-47h1.2l9.8 48.2h108.4l-47.8-227.8c-1.6-11.2-3.8-23.6-6.6-37.4-2.8-13.6-4.2-26.4-4.2-38.6 0-13.6 2.6-25 8-34.4 5.2-9.2 15.6-13.8 31-13.8 31.6 0 57.8 16.8 78.6 50.6 20.6 33.8 31 79 31 136 0 48.2-8.2 91-24.4 128.2-16.2 37.4-38.8 68.6-67.6 94-28.8 25.2-63.2 44.4-102.8 57.2-39.8 12.8-83.2 19.2-130.2 19.2-51.2 0-98-9-140.6-27s-79-43-109-74.6c-30-31.8-53.4-69-70-112-16.8-42.8-25.2-89.2-25.2-139 0-53 8.8-100.8 26.2-143.4s42-78.8 73.6-109c31.6-30.2 69.4-53.2 113.2-69.2s92.2-24 144.8-24c65.8 0 122.4 10.4 169.8 31.4 47.4 20.8 91 49.8 130.8 86.8l67.2-72.4zM526.6 584c-19.4 0-36.6-5.6-51.2-16.8s-27-25.4-37.2-42.8c-10.2-17.2-17.8-36.4-23.2-57.2-5.2-20.8-8-41-8-60.2 0-9.6 1-19.8 3-30.8 2-10.8 6-20.8 12.2-30.2 6-9.2 14-16.8 23.8-22.8s22.8-9 39-9c22 0 40.6 5.4 56 16.2s28 24.4 37.8 41c9.8 16.4 16.8 34.4 21.4 53.6 4.4 19.2 6.6 37 6.6 53 0 12.8-1.2 25.4-3.6 38-2.4 12.4-6.6 23.6-12.8 33.8-6 10-14.4 18.2-25 24.6-10.4 6.4-23.4 9.6-38.8 9.6z" />
<glyph unicode="&#xe99d;" glyph-name="backspace" d="M997.882 772.882c-17.808 17.81-40.49 27.118-66.132 27.118h-595.75c-48.606 0-87.434-18.804-115.412-56.882l-220.588-294.994 221.528-293.982c13.808-17.71 28.848-31.402 45.98-40.834 20.258-11.156 43.302-17.308 68.492-17.308h596c52.382 0 92 44.514 92 98v512c0 25.642-8.308 49.074-26.118 66.882zM826.884 295.386c3.056-3.020 4.744-7.124 4.744-11.42 0-4.302-1.688-8.406-4.744-11.414l-43.646-43.81c-3.15-3.172-7.25-4.742-11.382-4.742-4.142 0-8.276 1.57-11.39 4.742l-152.46 152.922-152.46-152.922c-3.116-3.172-7.25-4.742-11.39-4.742-4.132 0-8.234 1.57-11.384 4.742l-43.648 43.81c-3.054 3.008-4.746 7.112-4.746 11.414 0 4.296 1.692 8.4 4.746 11.42l153.072 152.614-153.476 152.594c-6.292 6.306-6.292 16.546 0 22.854l43.614 43.838c3.032 3.022 7.104 4.714 11.392 4.714 4.304 0 8.378-1.694 11.382-4.714l152.896-151.066 152.894 151.066c3.008 3.022 7.082 4.714 11.386 4.714 4.286 0 8.358-1.694 11.39-4.714l43.614-43.838c6.292-6.306 6.292-16.546 0-22.854l-153.48-152.594 153.076-152.614z" />
<glyph unicode="&#xe99e;" glyph-name="backspace-outline" d="M826.884 295.386c3.056-3.020 4.744-7.124 4.744-11.42 0-4.302-1.688-8.406-4.744-11.414l-43.646-43.81c-3.15-3.172-7.25-4.742-11.382-4.742-4.142 0-8.276 1.57-11.39 4.742l-152.46 152.922-152.46-152.922c-3.116-3.172-7.25-4.742-11.39-4.742-4.132 0-8.234 1.57-11.384 4.742l-43.648 43.81c-3.054 3.008-4.746 7.112-4.746 11.414 0 4.296 1.692 8.4 4.746 11.42l153.072 152.614-153.476 152.594c-6.292 6.306-6.292 16.546 0 22.854l43.614 43.838c3.032 3.022 7.104 4.714 11.392 4.714 4.304 0 8.378-1.694 11.382-4.714l152.896-151.066 152.894 151.066c3.008 3.022 7.082 4.714 11.386 4.714 4.286 0 8.358-1.694 11.39-4.714l43.614-43.838c6.292-6.306 6.292-16.546 0-22.854l-153.48-152.594 153.076-152.614zM997.882 772.882c-17.808 17.81-40.49 27.118-66.132 27.118h-595.75c-48.606 0-87.434-18.804-115.412-56.882l-220.588-294.994 221.528-293.982c13.808-17.71 28.848-31.402 45.98-40.834 20.258-11.156 43.302-17.308 68.492-17.308h596c52.382 0 92 44.514 92 98v512c0 25.642-8.308 49.074-26.118 66.882zM960 194c0-17.674-10.326-34-28-34h-596c-30.334 0-48.666 13.332-64 33l-192 255 192 256.876c19 26 42.334 31.124 64 31.124h595c17.674 0 29-12.326 29-30v-512z" />
<glyph unicode="&#xe99f;" glyph-name="bag" d="M896 640h-128v9c0 137-110 247-247 247h-16c-137 0-249-110-249-247v-9h-128l-64-640h896l-64 640zM320 649c0 101.4 83.6 183 185 183h16c101.4 0 183-81.6 183-183v-9h-384v9zM135.6 64l49.8 512h70.6v-72.6c-19.2-11-32-31.8-32-55.4 0-35.4 28.6-64 64-64s64 28.6 64 64c0 23.6-12.8 44.4-32 55.4v72.6h384v-72.6c-19.2-11-32-31.8-32-55.4 0-35.4 28.6-64 64-64s64 28.6 64 64c0 23.6-12.8 44.4-32 55.4v72.6h70.8l49.8-512h-753z" />
<glyph unicode="&#xe9a0;" glyph-name="battery-charging" d="M84.2 192h762.2c11 0 19.8 9 19.8 20v108h73.8c11.2 0 20.2 9 20.2 20v216c0 11-9 20-20.2 20h-74v108c0 11-8.6 20-19.8 20h-762c-11.2 0-20.2-9-20.2-20v-472c0-11 9-20 20.2-20zM514.8 640l-55.8-162h123l-200.8-222 55.8 162h-123l200.8 222z" />
<glyph unicode="&#xe9a1;" glyph-name="battery-empty" d="M939.8 576h-73.8v108c0 11-8.6 20-19.8 20h-762c-11.2 0-20.2-9-20.2-20v-472c0-11 9-20 20.2-20h762.2c11 0 19.8 9 19.8 20v108h73.8c11.2 0 20.2 9 20.2 20v216c-0.2 11-9.2 20-20.4 20zM896 384h-94v-128h-674v384h674v-128h94v-128z" />
<glyph unicode="&#xe9a2;" glyph-name="battery-full" d="M939.8 576h-73.8v108c0 11-8.6 20-19.8 20h-762c-11.2 0-20.2-9-20.2-20v-472c0-11 9-20 20.2-20h762.2c11 0 19.8 9 19.8 20v108h73.8c11.2 0 20.2 9 20.2 20v216c-0.2 11-9.2 20-20.4 20z" />
<glyph unicode="&#xe9a3;" glyph-name="battery-half" d="M939.8 576h-73.8v108c0 11-8.6 20-19.8 20h-762c-11.2 0-20.2-9-20.2-20v-472c0-11 9-20 20.2-20h762.2c11 0 19.8 9 19.8 20v108h73.8c11.2 0 20.2 9 20.2 20v216c-0.2 11-9.2 20-20.4 20zM896 384h-94v-128h-98l-64 384h162v-128h94v-128z" />
<glyph unicode="&#xe9a4;" glyph-name="battery-low" d="M84.2 192h762.2c11 0 19.8 9 19.8 20v108h73.8c11.2 0 20.2 9 20.2 20v216c0 11-9 20-20.2 20h-74v108c0 11-8.6 20-19.8 20h-762c-11.2 0-20.2-9-20.2-20v-472c0-11 9-20 20.2-20zM802 640v-128h94v-128h-94v-128h-354l-64 384h418z" />
<glyph unicode="&#xe9a5;" glyph-name="beaker" d="M287 575v-447c0-17.672 15.702-33 33.376-33h416c17.672 0 30.624 15.328 30.624 33v447h-480zM719 272c0-8.836-7.164-16-16-16s-16 7.164-16 16v96c0 8.836 7.164 16 16 16s16-7.164 16-16v-96zM704.376 416c-8.836 0-16 7.162-16 16s7.164 16 16 16 16-7.162 16-16-7.166-16-16-16zM890.156 895h-633.28c-108.69 0-129.188-54.852-129.188-79.5 60.5-8.5 63.312-9.5 63.312-73.5 0-32 0-614 0-614 0-70.692 58.682-129 129.376-129h415.5c70.692 0 127.124 58.308 127.124 129 0 0 0 633.5 0 671 0 40.698 24.596 76.552 27.032 80.366 2.438 3.812 6 7.596 6 9.916 0 2.342-0.832 5.718-5.876 5.718zM799 799v-671c0-35.84-24.886-65-59.624-65h-419c-35.234 0-65.376 29.766-65.376 65v614c0 23.624 2.188 74.5-7.656 87.914 1.842 1.586 6.228 1.086 9.032 1.086h545.32c-1.472 0-2.696-21.598-2.696-32z" />
<glyph unicode="&#xe9a6;" glyph-name="beer" d="M832 640h-64v32c29 7 64 48.6 64 96 0 70.6-57.4 128-128 128-32.6 0-62.2-12.2-84.8-32.2-24.8 20.2-56.4 32.2-90.8 32.2-31.6 0-60.8-10.2-84.6-27.4-19.8 17-45.8 27.4-74 27.4-34.2 0-64.8-15.2-85.6-39-23.4 24-56 39-92.2 39-70.6 0-128-57.4-128-128 0-32.4 12.2-62 32-84.6 0-0.4 0-0.8 0-1.4v-108c0-53 43-96 96-96v-446c0-17.6 14.4-32 32-32h512c17.6 0 32 14.4 32 32v160h64c70.6 0 128 57.4 128 128v192c0 70.6-57.4 128-128 128zM655.6 352c-3.2 0-6 1.2-8.6 2.8-4.4 2.8-7 8-7 13.6v95.6c0 8.8 7.2 16 16 16s16-7.2 16-16v-96.2c0-10-7.6-15.8-16.4-15.8zM670 503.2c-2.4-3.6-6-6-10.2-7-4.2-0.8-8.6 0-12 2.2-3.6 2.4-6 6-7 10.2-0.8 4.2 0 8.6 2.2 12 2.4 3.6 6 6 10.2 7 4.2 0.8 8.6 0 12-2.2 3.6-2.4 6-6 7-10.2 1-4 0.2-8.4-2.2-12zM704 640v-64h-255.6c-0.2 8.6-7.2 15.6-16 15.6s-15.8-7-16-15.6h-160.4v81.2c13 7.6 24.6 17.2 34 28.6 2.4 3 4.8 6 7 9.2 3-2.4 6-4.8 9.2-6.8 18.2-12.2 40-19.4 63.4-19.4 12.8 0 25.2 2.2 36.6 6 25.6-40.4 70.6-67.4 122-67.4 44 0 83.4 19.8 109.8 50.8 11.4 13.4 20.4 28.8 26.2 45.8h39.8v-64zM765.2 749.6c-5 11-16.2 18.4-29.2 18.4h-110c0 0-17.4 1.4-17.4-16.4s-5.8-34.2-15.6-47.4c-14.6-19.8-38.2-32.8-64.8-32.8-29.8 0-55.8 16.2-69.6 40.4-3.2 5.4-5.6 11.2-7.4 17.2-0.2 1.2-0.6 2.2-0.8 3.2-4 11.8-15 20.4-28.2 20.4-7.8 0-15-3-20.4-8 0 0 0 0-0.2-0.2-4.8-4.2-10.6-7.4-16.8-9.4-4.8-1.6-10-2.4-15.4-2.4-15 0-29.4 8-37.6 17.2-20 22.8-47.4 13.6-59.4 11s-24.4-23.4-24.4-23.4c-2.2-4.2-5-8-8-11.6-11.8-13.4-29-22-48.2-22v-162c-17.6 0-32 14.4-32 32v138.6c-15.4 9-26.8 24.2-30.6 42-1 4.2-1.4 8.8-1.4 13.4 0 35.2 28.8 64 64 64 23.6 0 46.6-15.4 60.2-30.8s53.4-15.4 67.8 0c13.6 14.6 28.6 30.8 49.6 30.8 12 0 23.2-4.4 31.8-11.6 3.8-3.2 7.2-7 9.8-11.2 2.2-3.6 4-8.4 6.2-11.6 5.4-6.8 13-11 22.4-11 8.8 0 16.6 3.8 22 10 1.2 1.4 2.4 3 3.4 4.6 4 5 8.4 9.6 13.4 13.6 13.6 10.8 31 17.2 49.6 17.2 21.2 0 40.4-8.2 54.8-21.8 3.4-3.2 13.4-9 26.4-10.2 9-0.8 12.2-0.6 16.4 0 20.6 2.6 28.8 9.4 32.8 13.2 11.6 11.6 27.6 18.8 45.2 18.8 35.2 0 64-28.8 64-64 0.4-6.2-0.6-12.4-2.4-18.2zM896 320c0-35.4-28.6-64-64-64h-64v320h64c35.4 0 64-28.6 64-64v-192zM352.4 623.6c0-8.837-7.163-16-16-16s-16 7.163-16 16c0 8.837 7.163 16 16 16s16-7.163 16-16zM672.4 623.6c0-8.837-7.163-16-16-16s-16 7.163-16 16c0 8.837 7.163 16 16 16s16-7.163 16-16z" />
<glyph unicode="&#xe9a7;" glyph-name="bluetooth" d="M280 672.8c-31.8-31.8-23.4-34.6-21.2-36.8s179.6-171.2 179.6-171.2 7.8-6.8 7.8-16.8v0c0-10-7.8-16.8-7.8-16.8s-177.4-169-179.6-171.2c-2.2-2.2-10.6-5 21.2-36.8s36.8-24.4 38.4-22.8l134.8 128.6c0.2 0.2 0.4 0.4 0.6 0.6s0.6 0.4 0.8 0.6c4.6 3.8 19.6 21.2 19.6 6.4 0-14.6 0-303.6 0-312.8v-3.6c0-11 10.4-20.2 23.2-20.2 7 0 13.4 2.6 17.8 7v0c0 0 236.4 225.6 245.6 234.4s10 21.4 2 29.4l-167.8 160.6c0 0-8.8 8.6-8.8 16.6s8.8 16.6 8.8 16.6l167.8 160.6c8 8 7.2 20.8-2 29.4-9.2 8.8-245.6 234.4-245.6 234.4v0c-4.2 4.2-10.6 7-17.6 7-12.8 0-23.2-9.2-23.2-20.2v-3.8c0-9.2 0-298.2 0-312.8 0-14.8-15 2.6-19.6 6.4-0.2 0.2-0.6 0.4-0.8 0.6s-0.4 0.4-0.6 0.6l-134.8 128.6c-2 1.8-6.8 9.2-38.6-22.6zM560 720.2c0 13.2 15-4.6 19.6-8.8l61-58.4c4.2-4 5.8-9.4 5.8-14.4s-2-11.2-5.6-14.6c-3.6-3.4-61.6-59-61.6-59-4.6-3.6-19.2-19.6-19.2-3.4 0 0 0 145.4 0 158.6zM560 334.4c0 16.4 14.4 0.4 19.2-3.4 0 0 58.2-55.6 61.8-59s5.6-9.8 5.6-14.6-1.6-10.4-5.8-14.4l-61-58.4c-4.6-4.2-19.6-22-19.6-8.8-0.2 13.2-0.2 158.6-0.2 158.6z" />
<glyph unicode="&#xe9a8;" glyph-name="bonfire" d="M541.86 258.798c-1.422 16.362-15.132 29.202-31.86 29.202-15.27 0-28.020-10.704-31.21-25.012l-0.014 0.004-31.224-185.004c-1.006-4.504-1.552-9.182-1.552-13.988 0-35.346 28.654-64 64-64s64 28.654 64 64c0 5.798-0.786 11.41-2.23 16.754l-29.91 178.044zM611.808 249.908l-0.002 0.004-0.006-0.004zM785.75 179.478c-3.436 2.814-6.6 5.762-10.276 7.88l-127.258 95.014c-11.55 7.592-23.994 7.378-33.054-1.7-8.262-8.286-9.372-20.738-3.356-30.762l97.918-131.526c1.892-2.988 4.332-5.598 6.732-8.39 15.604-18.142 50.16-19.176 69.292 0.014 19.142 19.174 18.862 54.020 0.002 69.47zM745.022 289.964h-0.004v-0.004zM870.856 315.050l-119.042 4.568c-7.782 1.116-14.8-4.106-16.13-12.022-1.208-7.222 2.694-14.276 9.336-17.632l0.026 0.078c0.082-0.038 0.124-0.012 0.21-0.050l115.434-35.512c16.578-3.86 35.312 4.686 35.312 23.296-0.002 23.568-6.168 34.89-25.146 37.274zM278.444 289.96v0.004h-0.004zM278.418 290.042l0.026-0.078c6.642 3.358 10.544 10.41 9.336 17.632-1.33 7.916-8.35 13.136-16.13 12.022l-119.042-4.568c-18.982-2.384-24.608-13.706-24.608-37.272 0-18.612 18.196-27.156 34.774-23.296l115.434 35.512c0.084 0.038 0.128 0.012 0.21 0.048zM375.806 282.386l-127.194-94.862c-3.676-2.114-7.138-4.724-10.274-7.862-19.126-19.134-19.132-50.176-0.008-69.3 19.122-19.142 50.11-19.156 69.236-0.014 2.6 2.598 4.81 5.388 6.704 8.37l97.924 131.282c6.014 10 4.904 22.426-3.354 30.692-9.054 9.056-23.416 9.784-33.034 1.694zM704 704c0 122-144.7 192-192 192 24.034-171.106-203.334-239.334-224-384s96-192 96-192c32.666 119.792 144.772 159.994 219.334 211.334 81.332 56 100.666 108.544 100.666 172.666zM704 448c10.060 31.226 9.82 98 0 128-17.998-37-52.574-68.6-94.372-97.378-17.168-11.822-39.718-22.886-57.66-33.594-37.428-22.33-69.968-43.696-94.658-72.8 22.692-34.728 56.636-52.228 86.69-52.228 71.998 0 128 28.676 160 128zM304.074 640c23.444 31.904 49.712 50.418 76.38 76.724 26.872 26.508 44.154 44.942 54.928 66.346-21.332 42.662-55.698 53.216-83.382 48.93 4.666-60.668-59.94-93.134-64-137.314-2.454-26.686 5-46.686 16.074-54.686z" />
<glyph unicode="&#xe9a9;" glyph-name="bookmark" d="M688 832h-352c-8.8 0-16-7.2-16-16v-112h384v112c0 8.8-7.2 16-16 16zM320 64l192 192 192-192v608h-384z" />
<glyph unicode="&#xe9aa;" glyph-name="bowtie" d="M447.91 535.978c0 0 16.108 9.358 39.97 14.022 42.636 8.332 78.944 11 94.932-17 19.554-34.248 36.804-106.834 32.976-171-2-33.5-9.244-44.25-9.244-44.25s-30.666-19.050-94.682-13.75c-69.45 5.75-79.942 30.008-79.942 30.008s8.994 22.61 15.99 84.998c6.994 62.388 0 116.972 0 116.972zM367.968 390c25.092 6.646 46.060 14.378 55.318 17.97 1.386 9.414 2.56 19.436 3.388 30.030 0.542 6.922 0.93 13.508 1.204 19.792-13.708 4.666-27.068 9.702-57.538 20.208-77.32 26.666-114.292 34-114.292 34s28.48 5 84.438-6c39.972-7.858 68.784-19 87.894-28.666 1.542 31.998-4.954 65.166-4.954 65.166-43.968 80.5-184.366 193.5-254.69 193.5-52.96 0-104.736-137-104.736-288s46.060-288 103.020-288c66.712 0 232.926 160 232.926 160s11.476 25.156 19.758 67.144c-37.576-10.396-127.68-17.144-127.68-17.144s41.968 11 75.944 20zM855.264 736c-72.74 0-204.726-113-248.696-193.5l-1.522-2.75c0 0 2.778-5.054 3.746-6.75 6.848-11.992 13.408-28.696 18.884-48.082 16.23 5.61 47.198 16.328 75.046 26.082 39.97 14 69.95 19 69.95 19s-105.964-47.482-139.21-68.528c4.338-20.318 7.386-42.398 8.436-64.484 10.846-4.432 33.102-12.95 59.828-19.988 37.972-10 80.796-23 80.796-23s-108.404 10.54-140.228 25.044c-0.026-5.724-0.19-11.418-0.526-17.044-1.994-33.438-9.216-44.208-9.244-44.248 15.242-21.086 150-157.752 224.456-157.752 56.96 0 103.020 137 103.020 288s-51.776 288-104.736 288z" />
<glyph unicode="&#xe9ab;" glyph-name="briefcase" d="M544 416h-64v16h-416v-352c0-8.8 6.6-16 15.6-16h865c8.8 0 15.4 7.2 15.4 16v352h-416v-16zM944.4 672h-240.4v61.4c-2 56.4-43.4 98.6-102.4 98.6h-179.2c-58.8 0-100.4-42.2-102.4-98.6v-61.4h-240.4c-8.8 0-15.6-7.2-15.6-16v-192h416v16h64v-16h416v192c0 8.8-6.6 16-15.6 16zM640 727.6c0-0.6 0-1.2 0-2v-53.6h-256v53.6c0 0.8 0 1.4 0 2s0 1.2 0 2c0 19.4 17.2 38.4 37.6 38.4h180.8c20.2 0 37.6-18.8 37.6-38.4 0-0.8 0-1.4 0-2z" />
<glyph unicode="&#xe9ac;" glyph-name="bug" d="M749.28 705.346c-58.55 77.63-143.156 126.654-237.28 126.654s-178.73-49.024-237.28-126.654c12.708-31.28 31.666-60 56.26-84.594 48.352-48.352 112.638-74.98 181.020-74.98s132.668 26.628 181.020 74.98c24.594 24.594 43.552 53.316 56.26 84.594zM253.672 674.352c-3.45-5.654-6.792-11.406-9.984-17.288-5.852 3.68-10.638 7.48-15.49 11.546-2.342 1.962-5.908 7.898-9.092 14.7 10.82 22.628 2.362 50.074-19.828 62.522-23.122 12.968-52.376 4.744-65.348-18.378-12.97-23.12-4.742-52.376 18.374-65.346 2.502-1.404 5.078-2.544 7.694-3.458 5.632-12.538 14.64-28.662 27.096-39.094 8.368-7.014 17.584-14.234 30.408-21.348-14.39-40.518-23.152-84.606-25.090-130.854-22.052-0.414-37.238-4.2-50.948-8.244-8.32-2.454-16.384-6.79-23.646-11.704-1.908 0.23-3.846 0.364-5.816 0.364-26.51 0-48-21.49-48-48s21.49-48 48-48c25.86 0 46.934 20.454 47.952 46.064 10.092 2.964 19.776 5.318 34.19 5.548 6.334-66.030 26.608-126.966 57.226-178.448-28.332-22.012-45.764-46.032-53.21-72.634 0 0-1.5-0.876-3.746-2.732-1.964-1.588-3.864-3.3-5.608-5.238-17.73-19.71-16.124-50.062 3.586-67.79 19.708-17.73 50.056-16.124 67.786 3.586 16.174 17.976 16.19 44.762 1.116 62.79 6.148 11.124 12.472 18.028 27.34 29.922 54.102-63.308 126.812-104.076 207.366-108.838v450.256c-106.472 5.836-197.542 69.468-242.328 160.096zM912 447.772c-1.97 0-3.908-0.132-5.816-0.364-7.262 4.914-15.326 9.25-23.646 11.704-13.708 4.042-28.894 7.83-50.948 8.244-1.938 46.25-10.7 90.336-25.090 130.854 12.824 7.114 22.042 14.334 30.408 21.348 12.456 10.432 21.462 26.556 27.096 39.094 2.616 0.916 5.192 2.056 7.694 3.458 23.116 12.97 31.344 42.228 18.374 65.346-12.97 23.122-42.226 31.346-65.348 18.378-22.19-12.45-30.648-39.894-19.828-62.522-3.184-6.802-6.75-12.738-9.092-14.7-4.852-4.066-9.638-7.866-15.49-11.546-3.192 5.882-6.536 11.634-9.984 17.288-44.786-90.628-135.856-154.26-242.328-160.096v-450.258c80.554 4.762 153.264 45.53 207.372 108.84 14.868-11.894 21.192-18.798 27.34-29.922-15.074-18.028-15.058-44.812 1.116-62.79 17.728-19.71 48.076-21.316 67.786-3.586 19.708 17.726 21.316 48.078 3.586 67.79-1.744 1.938-3.642 3.65-5.608 5.238-2.246 1.858-3.746 2.732-3.746 2.732-7.448 26.604-24.878 50.624-53.21 72.634 30.62 51.48 50.892 112.418 57.226 178.448 14.414-0.23 24.098-2.584 34.19-5.548 1.018-25.612 22.092-46.064 47.952-46.064 26.51 0 48 21.49 48 48s-21.496 48-48.006 48z" />
<glyph unicode="&#xe9ad;" glyph-name="calculator" d="M800 896h-576c-17.6 0-32-14.4-32-32v-832c0-17.6 14.4-32 32-32h576c17.6 0 32 14.4 32 32v832c0 17.6-14.4 32-32 32zM288 544h64v-64h-64v64zM288 416h64v-64h-64v64zM288 288h64v-64h-64v64zM480 96h-192v64h192v-64zM480 224h-64v64h64v-64zM480 352h-64v64h64v-64zM480 480h-64v64h64v-64zM608 96h-64v64h64v-64zM608 224h-64v64h64v-64zM608 352h-64v64h64v-64zM608 480h-64v64h64v-64zM736 96h-64v192h64v-192zM736 352h-64v64h64v-64zM736 480h-64v64h64v-64zM736 640h-448v160h448v-160z" />
<glyph unicode="&#xe9ae;" glyph-name="calendar" d="M288 704c35.4 0 64 28.6 64 64v64c0 35.4-28.6 64-64 64s-64-28.6-64-64v-64c0-35.4 28.6-64 64-64zM736 704c35.4 0 64 28.6 64 64v64c0 35.4-28.6 64-64 64s-64-28.6-64-64v-64c0-35.4 28.6-64 64-64zM944 832h-112v-81.4c0-45-46.4-78.6-94.4-78.6s-97.6 33.6-97.6 78.6v81.4h-256v-81.4c0-45-48-78.6-96-78.6s-96 33.6-96 78.6v81.4h-112c-8.8 0-16-7.2-16-16v-800c0-8.8 7.2-16 16-16h864c8.8 0 16 7.2 16 16v800c0 8.8-7.2 16-16 16zM864 96h-704v512h704v-512z" />
<glyph unicode="&#xe9af;" glyph-name="camera" d="M860.8 666h-135l-80.8 81.6c0 0-0.4 0.4-0.6 0.4l-0.4 0.4c-12 12-28.2 19.6-46.6 19.6h-168c-19.6 0-37-8.4-49.2-21.8v-0.2l-79-80h-138c-37.2 0-67.2-29.2-67.2-66.4v-404.2c0-37.2 30-67.4 67.2-67.4h697.6c37 0 67.2 30.2 67.2 67.4v404.2c0 37.2-30.2 66.4-67.2 66.4zM512 229c-101.8 0-184.8 83.2-184.8 185.2 0 102.2 83 185.2 184.8 185.2 102 0 184.8-83 184.8-185.2 0-102-82.8-185.2-184.8-185.2zM848.2 559c-15.4 0-28 12.6-28 28.2s12.6 28.2 28 28.2c15.4 0 28-12.6 28-28.2s-12.6-28.2-28-28.2zM512 554.2c-77.2 0-139.6-62.6-139.6-140 0-77.2 62.4-140 139.6-140 77 0 139.6 62.6 139.6 140s-62.6 140-139.6 140z" />
<glyph unicode="&#xe9b0;" glyph-name="card" d="M904 768h-784c-31 0-55.8-25-56-56v0-528c0.4-31 25-56 56-56h784c31.2 0 56 25.4 56 56.6v0 526.8c0 31.2-24.8 56.6-56 56.6zM154.2 704h715.4c13.8 0 24.2-10.2 26.2-24v-40h-767.8v40.6c2 13.6 12.6 23.4 26.2 23.4zM869.8 192h-715.6c-13.8 0-24.2 9.8-26.2 23.4v232.6h768v-232c-2-13.8-12.6-24-26.2-24zM192 352h384v-32h-384v32zM192 288h192v-32h-192v32zM704 352h128v-96h-128v96z" />
<glyph unicode="&#xe9b1;" glyph-name="cash" d="M0 768v-512h1024v512h-1024zM385.016 320h-224.758c0 53.164-43.098 96.258-96.258 96.258v159.742c70.692 0 128 57.306 128 128h193.018c-39.866-46.91-65.018-115.534-65.018-192s25.152-145.090 65.016-192zM596.178 437.504c-5.164-8.364-11.956-15.204-20.378-20.514-8.428-5.31-18.008-9.214-28.75-11.67-5.624-1.288-11.308-2.238-17.048-2.864v-18.456h-36v18.86c-5.536 0.714-10.922 1.726-16.144 3.082-11.376 2.95-21.282 7.318-29.702 13.418-8.428 6.094-15.168 13.606-20.22 23.146-4.84 9.122-7.456 21.494-7.856 31.494h39.47c0.192-6 1.656-13.064 4.402-18.368 2.946-5.706 7.052-9.766 12.32-13.4 5.144-3.56 11.064-6.164 17.726-7.838v68.716c-4.872 1.202-10.032 2.49-15.516 3.876-9.692 2.36-17.746 5.458-24.17 9.292-6.428 3.836-11.532 8.114-15.322 12.834-3.792 4.718-6.476 9.734-8.056 15.044-1.582 5.312-2.372 10.716-2.372 16.226 0 10.62 2.372 19.81 7.112 27.582 4.736 7.766 11.004 14.208 18.796 19.324 7.79 5.112 16.638 8.896 26.54 11.358 4.308 1.068 8.638 1.89 12.988 2.496v18.858h36v-18.998c4.92-0.706 9.712-1.676 14.36-2.946 10.43-2.854 19.592-7.126 27.488-12.828 7.9-5.708 14.166-12.728 18.8-21.084 4.218-7.622 6.516-16.144 6.89-26.144h-39.732c-1.506 12-6.35 20.652-14.548 25.846-3.932 2.492-8.372 4.392-13.258 5.774v-60.736c5.178-1.278 10.3-2.536 15.308-3.756 6.842-1.672 11.74-2.906 14.692-3.688 7.372-2.166 13.794-5.116 19.274-8.85 5.474-3.738 10.056-8.016 13.746-12.834 3.682-4.822 6.42-9.984 8.214-15.488 1.786-5.506 2.686-11.020 2.686-16.524 0.002-11.798-2.582-21.884-7.74-30.24zM960 416.258c-52 0-96-43.094-96-96.258h-225.018c39.866 46.91 65.018 115.534 65.018 192s-25.152 145.090-65.020 192h193.020c0-70.694 57.306-128 128-128v-159.742zM256 512c0-35.346-28.654-64-64-64s-64 28.654-64 64c0 35.346 28.654 64 64 64s64-28.654 64-64zM896 512c0-35.346-28.654-64-64-64s-64 28.654-64 64c0 35.346 28.654 64 64 64s64-28.654 64-64zM545.786 489.58c-4.79 1.646-10.058 3.236-15.786 4.778v-61.712c3.184 0.46 6.138 1.094 8.832 1.918 6.106 1.868 11.058 4.278 14.85 7.226s6.528 6.342 8.214 10.178c1.684 3.834 2.526 7.716 2.526 11.654 0 8.062-1.95 14.012-5.842 17.848-3.9 3.832-8.168 6.532-12.794 8.11zM472.008 578.082c-2.636-3.542-3.95-7.964-3.95-13.276 0-7.476 2.472-13.326 7.424-17.552 4.754-4.068 10.936-7.166 18.518-9.322v52.712c-4.36-0.9-8.384-2.27-12.040-4.156-4.002-2.064-7.32-4.866-9.952-8.406zM0 192h1024v-64h-1024v64z" />
<glyph unicode="&#xe9b2;" glyph-name="chatbox" d="M248.6 160h305.4c28.8 0 28.8-0.2 42.6-10.4s171.4-117.6 171.4-117.6v128h7.4c84.4 0 152.6 63.6 152.6 142.8v417.8c0 79.2-68.4 143.4-152.6 143.4h-526.8c-84.2 0-152.6-64.2-152.6-143.4v-417.8c0-79.2 68.4-142.8 152.6-142.8z" />
<glyph unicode="&#xe9b3;" glyph-name="chatboxes" d="M588.2 229c-5.2 3.6-14.4 9-35 9h-232.2c-69.4 0-129 52.2-129 118.4v201.6h-3.6c-52.6 0-92.4-41-92.4-91v-257.8c0-50 42.8-81.2 95.4-81.2h32.6v-96l106.2 90c3.8 2.8 10.6 6 26.4 6h179.6c46 0 94.8 22.8 103.8 64l-51.8 37zM802 864h-434.6c-69.4 0-111.4-53.6-111.4-119.6v-336.4c0-66.2 56-120 125.4-120h202.2c20.8 0 30-4.6 35-8.4l149.4-119.6v128h34c69.6 0 126 53.8 126 119.8v336.6c0 66-56.4 119.6-126 119.6z" />
<glyph unicode="&#xe9b4;" glyph-name="chatbox-working" d="M248.6 160h305.4c28.8 0 28.8-0.2 42.6-10.4s171.4-117.6 171.4-117.6v128h7.4c84.4 0 152.6 63.6 152.6 142.8v417.8c0 79.2-68.4 143.4-152.6 143.4h-526.8c-84.2 0-152.6-64.2-152.6-143.4v-417.8c0-79.2 68.4-142.8 152.6-142.8zM704.2 576c35.4 0 64-28.6 64-64s-28.6-64-64-64c-35.4 0-64 28.6-64 64s28.6 64 64 64zM512.2 576c35.4 0 64-28.6 64-64s-28.6-64-64-64c-35.4 0-64 28.6-64 64s28.6 64 64 64zM320.2 576c35.4 0 64-28.6 64-64s-28.6-64-64-64c-35.4 0-64 28.6-64 64s28.6 64 64 64z" />
<glyph unicode="&#xe9b5;" glyph-name="chatbubble" d="M512 61.2c57.8 0 112.8 11.4 162.6 31.8 1.2 0.6 2.2 1 3.4 1.4 0.2 0 0.4 0 0.4 0.2 7 2.6 14.6 4 22.4 4 8.6 0 16.8-1.6 24.2-4.8l168-61.8-44.2 176.8c0 10.6 3 20.6 7.8 29.2 0 0 0 0 0 0 1.6 2.6 3.2 5.2 5 7.4 41.8 62.6 66 137 66 216.8 0.4 222-185.8 401.8-415.6 401.8s-416-179.8-416-401.4c0-221.8 186.2-401.4 416-401.4z" />
<glyph unicode="&#xe9b6;" glyph-name="chatbubbles" d="M146.6 178c0 0 0 0 0 0 3.6-6 5.6-12.8 5.6-20.4l-24.2-125.6 112.4 44.2c5.4 2.2 11.2 3.4 17.4 3.4 5.6 0 11-1 16-2.8 0 0 0.2 0 0.4 0 0.8-0.4 1.6-0.6 2.4-1 35.6-14.6 74.8-22.8 115.8-22.8 92.6 0 175.2 41 229.6 105.2-28.2-7.2-57.8-11.4-88.2-11.4-191.8 0-347.4 150-347.4 335 0 23.6 2.6 46.4 7.4 68.6-60-52.2-97.8-127.6-97.8-211.6 0-56.8 17.2-110.4 47-155 1.2-1.6 2.4-3.8 3.6-5.8zM580.6 864c-167.4 0-307.2-114.4-340-266.4-4.8-22.2-7.4-45-7.4-68.6 0-185 155.4-335 347.4-335 30.6 0 60 4.2 88.2 11.4 16.2 4.2 32.2 9 47.6 15.2 1 0.4 1.8 0.8 2.8 1.2 0.2 0 0.4 0 0.4 0.2 5.8 2.2 12.2 3.4 18.6 3.4 7.2 0 14-1.4 20.2-4l137.2-51.6-34 147.6c0 8.8 2.4 17.2 6.6 24.4 0 0 0 0 0 0 1.2 2.2 2.8 4.2 4.2 6.2 34.8 52.2 55 114.4 55 181 0.6 185-154.8 335-346.8 335z" />
<glyph unicode="&#xe9b7;" glyph-name="chatbubble-working" d="M512 61.2c57.8 0 112.8 11.4 162.6 31.8 1.2 0.6 2.2 1 3.4 1.4 0.2 0 0.4 0 0.4 0.2 7 2.6 14.6 4 22.4 4 8.6 0 16.8-1.6 24.2-4.8l168-61.8-44.2 176.8c0 10.6 3 20.6 7.8 29.2 0 0 0 0 0 0 1.6 2.6 3.2 5.2 5 7.4 41.8 62.6 66 137 66 216.8 0.4 222-185.8 401.8-415.6 401.8s-416-179.8-416-401.4c0-221.8 186.2-401.4 416-401.4zM704 512c35.4 0 64-28.6 64-64s-28.6-64-64-64c-35.4 0-64 28.6-64 64s28.6 64 64 64zM512 512c35.4 0 64-28.6 64-64s-28.6-64-64-64c-35.4 0-64 28.6-64 64s28.6 64 64 64zM320 512c35.4 0 64-28.6 64-64s-28.6-64-64-64c-35.4 0-64 28.6-64 64s28.6 64 64 64z" />
<glyph unicode="&#xe9b8;" glyph-name="checkmark" d="M923.2 740.8l-109.8 86.6c-3.4 2.8-7.6 4.8-12.4 4.8s-9.2-2-12.6-5l-399.4-513.2c0 0-157 151-161.4 155.4s-10.2 11.8-19 11.8c-8.8 0-12.8-6.2-17.4-10.8-3.4-3.6-59.4-62.4-87-91.6-1.6-1.8-2.6-2.8-4-4.2-2.4-3.4-4-7.2-4-11.4 0-4.4 1.6-8 4-11.4l5.6-5.2c0 0 278.6-267.6 283.2-272.2s10.2-10.4 18.4-10.4c8 0 14.6 8.6 18.4 12.4l498.2 640c2.4 3.4 4 7.2 4 11.6 0 5-2 9.2-4.8 12.8z" />
<glyph unicode="&#xe9b9;" glyph-name="checkmark-circled" d="M512 896c-247.4 0-448-200.6-448-448s200.6-448 448-448c247.4 0 448 200.6 448 448s-200.6 448-448 448zM741.8 597.8l-278.2-357c-2.2-2.2-5.8-7-10.2-7-4.6 0-7.6 3.2-10.2 5.8s-157.8 151.8-157.8 151.8l-3 3c-1.2 1.8-2.2 4-2.2 6.4s1 4.6 2.2 6.4c0.8 0.8 1.4 1.4 2.2 2.4 15.4 16.2 46.6 49 48.6 51 2.6 2.6 4.8 6 9.6 6 5 0 8.2-4.2 10.6-6.6s90-86.6 90-86.6l222.6 286c2 1.6 4.4 2.8 7 2.8s5-1 7-2.6l61.2-48.2c1.6-2 2.6-4.4 2.6-7 0.2-2.6-0.8-4.8-2-6.6z" />
<glyph unicode="&#xe9ba;" glyph-name="checkmark-round" d="M896 816.2c-34.6 26.8-83 18.6-108.2-18.2l-359.8-526.4-198.2 214.6c-29.2 33.2-78.2 34.8-109.4 3.6-31.2-31-32.8-83.2-3.4-116.2 0 0 240.8-267.2 275.4-294s83-18.6 108.2 18.2l412.6 603.4c25.2 37 17.4 88.4-17.2 115z" />
<glyph unicode="&#xe9bb;" glyph-name="chevron-down" d="M512 363.4v0 0l348.4 334.4c8.6 8.4 22.8 8.2 31.6-0.4l61.2-59.8c8.8-8.6 9-22.6 0.4-31l-425.4-408.4c-4.4-4.4-10.4-6.4-16.2-6-6-0.2-11.8 1.8-16.2 6l-425.4 408.4c-8.6 8.4-8.4 22.4 0.4 31l61.2 59.8c8.8 8.6 23 8.8 31.6 0.4l348.4-334.4z" />
<glyph unicode="&#xe9bc;" glyph-name="chevron-left" d="M427.4 448v0 0l334.4 348.2c8.4 8.6 8.2 22.8-0.4 31.6l-59.8 61.2c-8.6 8.8-22.6 9-31 0.4l-408.4-425.2c-4.4-4.4-6.4-10.4-6-16.2-0.2-6 1.8-11.8 6-16.2l408.4-425.4c8.4-8.6 22.4-8.4 31 0.4l59.8 61.2c8.6 8.8 8.8 23 0.4 31.6l-334.4 348.4z" />
<glyph unicode="&#xe9bd;" glyph-name="chevron-right" d="M596.6 448v0 0l-334.4 348.2c-8.4 8.6-8.2 22.8 0.4 31.6l59.8 61.2c8.6 8.8 22.6 9 31 0.4l408.4-425.4c4.4-4.4 6.4-10.4 6-16.2 0.2-6-1.8-11.8-6-16.2l-408.4-425.2c-8.4-8.6-22.4-8.4-31 0.4l-59.8 61.2c-8.6 8.8-8.8 23-0.4 31.6l334.4 348.4z" />
<glyph unicode="&#xe9be;" glyph-name="chevron-up" d="M512 532.6v0 0l348.4-334.4c8.6-8.4 22.8-8.2 31.6 0.4l61.2 59.8c8.8 8.6 9 22.6 0.4 31l-425.4 408.4c-4.4 4.4-10.4 6.4-16.2 6-6 0.2-11.8-1.8-16.2-6l-425.4-408.4c-8.6-8.4-8.4-22.4 0.4-31l61.2-59.8c8.8-8.6 23-8.8 31.6-0.4l348.4 334.4z" />
<glyph unicode="&#xe9bf;" glyph-name="clipboard" d="M322 639h384c-3.376 40-19.458 70.9-55.842 80.712-0.892 0.238-2.24 0.848-3.134 1.082-24.008 6.848-42.024 15.306-42.024 41.562v41.19c0 51.072-41.048 92.454-92.020 92.454-50.932 0-91.98-41.382-91.98-92.454v-41.19c0-26.256-17.184-34.338-41.194-41.186-0.894-0.234-1.6-1.22-2.532-1.458-36.382-9.812-51.42-40.712-55.274-80.712zM513.98 831.21c15.23 0 27.582-12.39 27.582-27.664 0-15.308-12.352-27.7-27.582-27.7-15.228 0-27.544 12.39-27.544 27.7 0 15.274 12.316 27.664 27.544 27.664zM811.222 833h-148.222v-27.976c0-21.166 18.386-38.024 39.014-38.024h74.424c13.334 0 24.198-10.87 24.88-24.39l0.17-654.2c-0.644-12.864-10.606-23.092-23.028-24.034l-528.836-0.062c-12.422 0.942-22.298 11.39-22.944 24.252l-0.17 654.028c0.644 13.522 11.716 24.406 25.012 24.406h74.462c20.626 0 37.014 16.858 37.014 38.024v27.976h-146.262c-30.236 0-55.736-25.116-55.736-56.15v-720.76c0-31.004 25.5-57.090 55.738-57.090h594.484c30.276 0 53.778 26.086 53.778 57.090v720.76c0 31.034-23.502 56.15-53.778 56.15zM289 575h224v-64h-224v64zM289 191h320v-64h-320v64zM289 319h258v-64h-258v64zM289 447h416v-64h-416v64z" />
<glyph unicode="&#xe9c0;" glyph-name="clock" d="M511.976 896c-247.406 0-447.976-200.596-447.976-448 0-247.43 200.57-448 447.976-448 247.43 0 448.024 200.57 448.024 448 0 247.404-200.594 448-448.024 448zM783.522 176.47c-20.198-20.196-42.252-37.856-65.772-52.84l-31.892 55.24-27.712-16 31.91-55.272c-49.676-26.060-104.744-40.91-162.054-43.248v63.65h-32v-63.65c-57.312 2.332-112.382 17.18-162.060 43.24l31.916 55.282-27.712 16-31.898-55.25c-23.522 14.984-45.58 32.648-65.778 52.848-20.198 20.198-37.86 42.254-52.844 65.778l55.248 31.898-16 27.71-55.282-31.916c-26.060 49.678-40.908 104.748-43.242 162.060h63.65v32h-63.65c2.334 57.31 17.184 112.38 43.246 162.058l55.276-31.916 16 27.712-55.246 31.896c14.984 23.52 32.644 45.574 52.838 65.77 20.2 20.202 42.258 37.866 65.78 52.852l31.898-55.248 27.712 16-31.916 55.28c49.682 26.066 104.752 40.916 162.062 43.246v-63.65h32v63.648c57.308-2.338 112.376-17.19 162.052-43.252l-31.908-55.268 27.712-16 31.89 55.236c23.52-14.984 45.574-32.646 65.772-52.842 20.2-20.198 37.862-42.252 52.848-65.774l-55.238-31.892 16-27.712 55.272 31.912c26.062-49.678 40.914-104.746 43.248-162.054h-63.648v-32h63.648c-2.334-57.31-17.184-112.378-43.244-162.056l-55.274 31.914-16-27.712 55.242-31.894c-14.986-23.528-32.65-45.584-52.85-65.784zM800 478h-231.464c-5.636 10.598-14.166 19.416-24.536 25.416v136.584h-64v-136.584c-19.124-11.068-32-31.732-32-55.416 0-35.346 28.654-64 64-64 22.85 0 42.888 11.984 54.212 30h233.788v64z" />
<glyph unicode="&#xe9c1;" glyph-name="close" d="M887.2 185.8l-262.4 263.4 263 260c10.8 10.8 10.8 28.4 0 39.2l-74.8 75.2c-5.2 5.2-12.2 8-19.6 8s-14.4-3-19.6-8l-261.8-259.2-262.2 259c-5.2 5.2-12.2 8-19.6 8s-14.4-3-19.6-8l-74.6-75.2c-10.8-10.8-10.8-28.4 0-39.2l263-260-262.2-263.2c-5.2-5.2-8.2-12.2-8.2-19.6s2.8-14.4 8.2-19.6l74.8-75.2c5.4-5.4 12.4-8.2 19.6-8.2 7 0 14.2 2.6 19.6 8.2l261.2 262.4 261.4-262.2c5.4-5.4 12.4-8.2 19.6-8.2 7 0 14.2 2.6 19.6 8.2l74.8 75.2c5.2 5.2 8.2 12.2 8.2 19.6-0.2 7.2-3.2 14.2-8.4 19.4z" />
<glyph unicode="&#xe9c2;" glyph-name="close-circled" d="M512 894c-247.4 0-448-200.6-448-448s200.6-448 448-448c247.4 0 448 200.6 448 448s-200.6 448-448 448zM728.6 295c3-3 4.6-7 4.6-11.2s-1.6-8.4-4.6-11.2l-43.2-43.4c-3.2-3.2-7.2-4.6-11.2-4.6s-8.2 1.6-11.2 4.6l-151 151.2-150.8-151.4c-3-3.2-7.2-4.6-11.2-4.6s-8.2 1.6-11.2 4.6l-43.2 43.4c-3 3-4.6 7-4.6 11.2s1.6 8.4 4.6 11.2l151.4 152-151.8 150c-6.2 6.2-6.2 16.4 0 22.6l43.2 43.4c3 3 7 4.6 11.2 4.6s8.2-1.6 11.2-4.6l151.4-149.4 151.4 149.4c3 3 7 4.6 11.2 4.6s8.2-1.6 11.2-4.6l43.2-43.4c6.2-6.2 6.2-16.4 0-22.6l-151.8-150 151.2-151.8z" />
<glyph unicode="&#xe9c3;" glyph-name="closed-captioning" d="M0 832v-768h1024v768h-1024zM928 448.35c0.090-53.448-3.094-94.286-7.594-160.446s-38.406-112.904-118.212-120.24c-79.792-7.334-191.456-7.904-290.194-7.664-98-0.24-210.396 0.33-290.188 7.664-79.806 7.336-113.71 54.080-118.21 120.24s-7.682 106.998-7.592 160.446c-0.090 53.45 0.19 88.248 7.596 160.448s46.020 112.534 118.212 119.868 181.866 7.334 275.59 7.334c4.862 0 10.592 0 14.592 0 4.874 0 9.742 0 14.604 0 93.724 0 203.396 0 275.59-7.334s110.806-47.666 118.212-119.868 7.684-106.998 7.594-160.448zM744 392.308v-1.532c0-37.278-23.162-59.132-54.006-59.132-30.836 0-51.616 24.618-54.568 59.132 0 0-2.67 18.156-2.67 54.596s3.092 59.518 3.092 59.518c5.422 38.946 24.376 59.132 55.214 59.132 30.734 0 55.168-26.524 55.168-66.776 0.046-0.172 0.020-1.248 0.020-1.248h103.082c0 50-12.618 95.112-37.84 123.492-25.234 28.366-62.806 42.546-112.738 42.546-24.966 0-47.86-3.308-68.66-9.884-20.808-6.59-38.752-18.124-53.832-34.582-15.090-16.468-26.794-38.508-35.11-66.118-8.324-27.618-12.484-62.448-12.484-104.494 0-41.040 3.376-75.368 10.144-102.976 6.754-27.622 16.776-49.66 30.036-66.118 13.264-16.468 29.906-27.87 49.934-34.2 20.020-6.326 43.558-9.496 70.608-9.496 57.208 0 98.178 14.516 122.886 42.636 24.696 28.122 37.056 69.196 37.056 123.196h-105.332c0 0 0-5.752 0-7.692zM390 392.308v-1.532c0-37.278-23.162-59.132-54.006-59.132-30.836 0-51.616 24.618-54.568 59.132 0 0-2.67 18.156-2.67 54.596s3.092 59.518 3.092 59.518c5.422 38.946 24.376 59.132 55.214 59.132 30.734 0 55.168-26.524 55.168-66.776 0.046-0.172 0.020-1.248 0.020-1.248h103.082c0 50-12.618 95.112-37.84 123.492-25.234 28.366-62.806 42.546-112.738 42.546-24.966 0-47.86-3.308-68.66-9.884-20.808-6.59-38.752-18.124-53.832-34.582-15.090-16.468-26.794-38.508-35.11-66.118-8.324-27.618-12.484-62.448-12.484-104.494 0-41.040 3.376-75.368 10.144-102.976 6.754-27.622 16.776-49.66 30.036-66.118 13.264-16.468 29.906-27.87 49.934-34.2 20.020-6.326 43.558-9.496 70.608-9.496 57.208 0 98.178 14.516 122.886 42.636 24.696 28.122 37.056 69.196 37.056 123.196h-105.332c0 0 0-5.752 0-7.692z" />
<glyph unicode="&#xe9c4;" glyph-name="close-round" d="M875 186.8l-261.2 261.2 261.2 261.2c28.2 28.2 28.2 73.6 0 101.8s-73.6 28.2-101.8 0l-261.2-261.2-261.2 261.2c-28.2 28.2-73.6 28.2-101.8 0s-28.2-73.6 0-101.8l261.2-261.2-261.2-261.2c-28.2-28.2-28.2-73.6 0-101.8s73.6-28.2 101.8 0l261.2 261.2 261.2-261.2c28.2-28.2 73.6-28.2 101.8 0 28 28.2 28 73.8 0 101.8z" />
<glyph unicode="&#xe9c5;" glyph-name="cloud" d="M796.2 493.6c0 2.4 0.4 4.8 0.4 7.2 0 130-103.6 235.2-231.4 235.2-92.2 0-171.4-54.8-208.6-134-16.2 8.2-34.4 13-53.6 13-59 0-108.2-43.8-117.6-101-70.8-24.4-121.4-92.2-121.4-172 0-100.4 80.2-181.8 179-182h553.4c90.4 0.4 163.4 75 163.4 166.8 0.2 92-73.2 166.6-163.6 166.8z" />
<glyph unicode="&#xe9c6;" glyph-name="code" d="M336 176c-12.286 0-24.57 4.688-33.942 14.058l-224 224c-18.746 18.746-18.746 49.138 0 67.882l224 224c18.746 18.744 49.136 18.744 67.882 0 18.742-18.744 18.742-49.136 0-67.882l-190.058-190.058 190.058-190.058c18.742-18.746 18.742-49.136 0-67.882-9.374-9.372-21.654-14.060-33.94-14.060zM688 176c12.286 0 24.57 4.688 33.942 14.058l224 224c18.746 18.746 18.746 49.138 0 67.882l-224 224c-18.746 18.744-49.136 18.744-67.882 0-18.742-18.744-18.742-49.136 0-67.882l190.058-190.058-190.058-190.058c-18.742-18.746-18.742-49.136 0-67.882 9.374-9.372 21.654-14.060 33.94-14.060z" />
<glyph unicode="&#xe9c7;" glyph-name="code-download" d="M661.934 391.792c12.96 12.934 12.96 33.902 0 46.844-12.96 12.934-34.684 12.934-47.646 0l-70.288-69.5v237.704c0 18.302-13.678 33.12-31.998 33.12-18.324 0-32.002-14.816-32.002-33.12v-237.704l-70.010 69.5c-12.962 12.934-34.19 12.934-47.146 0-12.964-12.942-13.078-33.91-0.114-46.844l126.14-126.046c0.040-0.040 0.056-0.074 0.1-0.114 1.45-1.432 3.026-2.734 4.736-3.89 0.204-0.134 0.4-0.268 0.604-0.4 0.644-0.412 1.302-0.806 1.98-1.174 0.234-0.128 0.462-0.266 0.7-0.386 0.842-0.436 1.698-0.846 2.584-1.21 0.004-0.002 0.008-0.002 0.012-0.004 0.81-0.334 1.634-0.616 2.466-0.884 0.224-0.074 0.444-0.17 0.67-0.236 0.302-0.094 0.614-0.148 0.922-0.23 2.848-0.77 5.744-1.176 8.63-1.176 2.884 0 5.78 0.406 8.624 1.176 0.306 0.082 0.624 0.136 0.928 0.23 0.226 0.066 0.448 0.162 0.67 0.236 0.832 0.27 1.658 0.55 2.466 0.884 0.004 0.002 0.008 0.002 0.014 0.004 0.882 0.366 1.74 0.774 2.578 1.208 0.244 0.128 0.48 0.266 0.72 0.396 0.664 0.37 1.316 0.752 1.95 1.158 0.218 0.138 0.434 0.28 0.646 0.424 0.816 0.548 1.612 1.124 2.368 1.744 0.008 0.004 0.014 0.008 0.022 0.012 0.812 0.664 1.582 1.368 2.324 2.102 0.048 0.044 0.102 0.086 0.148 0.132l126.202 126.044zM336 176c-12.286 0-24.57 4.688-33.942 14.058l-224 224c-18.746 18.746-18.746 49.138 0 67.882l224 224c18.746 18.744 49.136 18.744 67.882 0 18.742-18.744 18.742-49.136 0-67.882l-190.058-190.058 190.058-190.058c18.742-18.744 18.742-49.136 0-67.882-9.374-9.372-21.654-14.060-33.94-14.060zM688 176c12.286 0 24.57 4.688 33.942 14.058l224 224c18.746 18.746 18.746 49.138 0 67.882l-224 224c-18.746 18.744-49.136 18.744-67.882 0-18.742-18.744-18.742-49.136 0-67.882l190.058-190.058-190.058-190.058c-18.742-18.744-18.742-49.136 0-67.882 9.374-9.372 21.654-14.060 33.94-14.060z" />
<glyph unicode="&#xe9c8;" glyph-name="code-working" d="M416.332 447.668c0-26.51-21.49-48-48-48s-48 21.49-48 48c0 26.51 21.49 48 48 48s48-21.49 48-48zM560.332 447.668c0-26.51-21.49-48-48-48s-48 21.49-48 48c0 26.51 21.49 48 48 48s48-21.49 48-48zM704.332 447.668c0-26.51-21.49-48-48-48s-48 21.49-48 48c0 26.51 21.49 48 48 48s48-21.49 48-48zM336 176c-12.286 0-24.57 4.688-33.942 14.058l-224 224c-18.746 18.746-18.746 49.138 0 67.882l224 224c18.746 18.744 49.136 18.744 67.882 0 18.742-18.744 18.742-49.136 0-67.882l-190.058-190.058 190.058-190.058c18.742-18.744 18.742-49.136 0-67.882-9.374-9.372-21.654-14.060-33.94-14.060zM688 176c12.286 0 24.57 4.688 33.942 14.058l224 224c18.746 18.746 18.746 49.138 0 67.882l-224 224c-18.746 18.744-49.136 18.744-67.882 0-18.742-18.744-18.742-49.136 0-67.882l190.058-190.058-190.058-190.058c-18.742-18.744-18.742-49.136 0-67.882 9.374-9.372 21.654-14.060 33.94-14.060z" />
<glyph unicode="&#xe9c9;" glyph-name="coffee" d="M766.2 445.2c1.2 10.8 1.8 20 1.8 27.6 0 39.2-6.6 39.4-32 39.4h-151c14.6 24 23 48.8 23 74 0 75.8-114.6 112.8-114.6 176 0 23.4 10.2 42.6 18.6 69.8-53-14-94.8-67-94.8-123.2 0-96.6 112.6-97.4 112.6-169.6 0-9-2.8-17-4.2-27h-111.8c1.6 6 2.6 12.4 2.6 18.6 0 45.6-78.2 67.8-78.2 105.6 0 14 2 25.6 6.4 42-25.8-10.2-56.6-40-56.6-73.6 0-53.4 63.8-58.6 73.6-92.6h-201.6c-25.4 0-32-0.2-32-39.4s15.4-122.6 56.6-222c41.2-99.4 88.8-143.2 122.4-172.4l0.2 0.4c10.2-9.2 23.6-14.6 38.4-14.6h204.8c14.8 0 28.2 5.4 38.4 14.6l0.2-0.4c18 15.6 40 35.6 62.8 65.8 9.4-4 19.6-7.4 30.8-10 16.8-4 33.6-6 49.6-6 48 0 91.2 18.4 121.6 51.6 26.8 29.2 42.2 68.8 42.2 108.4 0 77.8-56 142.8-129.8 157zM732.2 191.6c-17.2 0-31.2 2.4-44.2 8.4 8 16 15.8 31.8 23.4 50.2 20.2 48.8 34.2 94 43.2 131.6 44-8.6 77.4-47.6 77.4-94.2 0-45.4-34.4-96-99.8-96z" />
<glyph unicode="&#xe9ca;" glyph-name="compass" d="M512 896c-78 0-151.2-20-215-54.8-23.2 33-61.6 54.8-105 54.8-70.6 0-128-57.4-128-128 0-43.4 21.8-81.8 54.8-105-34.8-63.8-54.8-137-54.8-215 0-247.4 200.6-448 448-448s448 200.6 448 448c0 247.4-200.6 448-448 448zM128 768c0 35.4 28.6 64 64 64 21 0 39.6-10 51.2-25.6-34-25.4-64.2-55.6-89.6-89.6-15.6 11.6-25.6 30.2-25.6 51.2zM783.6 176.4c-72.6-72.4-169-112.4-271.6-112.4s-199 40-271.6 112.4c-72.4 72.6-112.4 169-112.4 271.6s40 199 112.4 271.6c72.6 72.4 169 112.4 271.6 112.4s199-40 271.6-112.4c72.4-72.6 112.4-169 112.4-271.6s-40-199-112.4-271.6zM704 704c0 0-203.2-167.4-240-208s-144-304-144-304 204.8 164.6 240 208 144 304 144 304z" />
<glyph unicode="&#xe9cb;" glyph-name="compose" d="M885.6 760.8l-60.8 60.8c-14 13.8-36.4 13.8-50.2 0l-63.6-63.6 111-111 63.6 63.4c13.8 14.2 13.8 36.6 0 50.4zM692.2 739l-344-355-28.2-128 128 28.2 353.2 346zM768 448v-300c0-10.2-7.8-20.2-18.4-20.2s-538 0.2-538 0.2c-11.2 0-19.6 10.8-19.6 20s0 536 0 536c0 10 9.4 20 21.2 20h298.8l64 64h-401.2c-26 0-46.8-20.6-46.8-46.6v-610.6c0-25.8 21-46.8 46.8-46.8h610.6c25.8 0 46.6 21 46.6 46.8v401.2l-64-64z" />
<glyph unicode="&#xe9cc;" glyph-name="connection-bars" d="M160 256h128v-128h-128v128zM352 384h128v-256h-128v256zM544 576h128v-448h-128v448zM736 768h128v-640h-128v640z" />
<glyph unicode="&#xe9cd;" glyph-name="contrast" d="M512 896c-247.4 0-448-200.6-448-448s200.6-448 448-448c247.4 0 448 200.6 448 448s-200.6 448-448 448zM783.6 176.4c-72.6-72.4-169.6-112.4-271.6-112.4v768c102 0 199-40 271.6-112.4 72.4-72.6 112.4-169 112.4-271.6s-40-199-112.4-271.6z" />
<glyph unicode="&#xe9ce;" glyph-name="crop" d="M704 96h128v-96h-128v96zM832 256v512h-480v-128h352v-384h-384v640h-128v-128h-128v-128h128v-512h768v128z" />
</font>
</defs>
</svg>
